<?xml version="1.0" standalone="no"?>
<!DOCTYPE svg PUBLIC "-//W3C//DTD SVG 1.1//EN" "http://www.w3.org/Graphics/SVG/1.1/DTD/svg11.dtd" >
<svg xmlns="http://www.w3.org/2000/svg" xmlns:xlink="http://www.w3.org/1999/xlink" version="1.1">
<metadata></metadata>
<defs>
<font id="chantillylight" horiz-adv-x="1038" >
<font-face units-per-em="2048" ascent="1536" descent="-512" />
<missing-glyph horiz-adv-x="512" />
<glyph unicode="&#xfb01;" horiz-adv-x="993" d="M27 809v90h157v66q0 171 33 249q37 85 110 132t171 47q68 0 147 -29v-107q-86 35 -145 35q-148 0 -193 -133q-18 -59 -18 -190v-70h567v-899h-102v809h-467v-809h-103v809h-157zM754 1141v162h102v-162h-102z" />
<glyph unicode="&#xfb02;" horiz-adv-x="995" d="M27 809v90h157v66q0 171 33 249q37 85 110.5 132t170.5 47q70 0 147 -29v-107q-86 35 -145 35q-148 0 -193 -133q-18 -59 -18 -190v-70h172v-90h-174v-809h-103v809h-157zM756 0v1366h102v-1366h-102z" />
<glyph unicode="&#xfb03;" horiz-adv-x="1558" d="M27 809v90h157v66q0 171 33 249q37 85 110 132t171 47q68 0 147 -29v-107q-86 35 -145 35q-148 0 -193 -133q-18 -59 -18 -190v-70h459v66q0 173 32 249q37 85 110.5 132t170.5 47q70 0 149 -29v-107q-86 35 -147 35q-148 0 -193 -133q-18 -59 -18 -190v-70h569v-899 h-102v809h-469v-809h-102v809h-461v-809h-103v809h-157zM1319 1141v162h102v-162h-102z" />
<glyph unicode="&#xfb04;" horiz-adv-x="1558" d="M27 809v90h157v66q0 171 33 249q37 85 110 132t171 47q68 0 147 -29v-107q-86 35 -145 35q-148 0 -193 -133q-18 -59 -18 -190v-70h459v66q0 173 32 249q37 85 110.5 132t170.5 47q70 0 149 -29v-107q-88 35 -147 35q-148 0 -193 -133q-18 -59 -18 -190v-70h172v-90h-174 v-809h-102v809h-461v-809h-103v809h-157zM1319 0v1366h102v-1366h-102z" />
<glyph horiz-adv-x="0" />
<glyph horiz-adv-x="682" />
<glyph unicode=" "  horiz-adv-x="512" />
<glyph unicode="&#x09;" horiz-adv-x="512" />
<glyph unicode="&#xa0;" horiz-adv-x="512" />
<glyph unicode="!" horiz-adv-x="466" d="M164 0v209h139v-209h-139zM166 1366h135l-10 -723l-23 -287h-71l-23 287z" />
<glyph unicode="&#x22;" horiz-adv-x="710" d="M109 1366h137l-29 -369h-82zM463 1366h137l-27 -369h-81z" />
<glyph unicode="#" horiz-adv-x="1259" d="M68 469l20 70h277l75 292h-278l20 76h281l76 281h75l-75 -281h303l76 281h79l-77 -281h270l-19 -76h-272l-78 -292h275l-21 -70h-272l-78 -291h-76l76 291h-303l-78 -291h-80l80 291h-276zM440 539h305l78 292h-303z" />
<glyph unicode="$" d="M100 1018q0 141 102 233.5t265 96.5v170h92v-168q189 -25 324 -121v-131q-74 68 -146 102t-178 51v-518q155 -49 219 -90q164 -102 164 -281q0 -145 -104.5 -239.5t-278.5 -106.5v-202h-92v202q-159 9 -363 129v129q167 -132 363 -157v536q-97 30 -144.5 51.5t-86.5 51.5 q-65 50 -100.5 118t-35.5 144zM199 1024q0 -182 268 -264v493q-122 -8 -195 -70t-73 -159zM559 117q123 5 202 73.5t79 171.5q0 60 -29.5 110.5t-83.5 82.5q-58 33 -168 72v-510z" />
<glyph unicode="%" horiz-adv-x="1400" d="M76 1028q0 145 79 244.5t193 99.5q117 0 191.5 -97.5t74.5 -248.5q0 -146 -76 -245t-188 -99q-121 0 -197.5 96.5t-76.5 249.5zM147 1026q0 -124 55 -199t146 -75q85 0 140 77t55 197q0 117 -55.5 195.5t-137.5 78.5q-86 0 -144.5 -79t-58.5 -195zM285 0l757 1366h74 l-751 -1366h-80zM786 342q0 143 80 242.5t195 99.5q117 0 191.5 -97.5t74.5 -248.5q0 -148 -76 -246t-190 -98q-121 0 -198 97t-77 251zM858 336q0 -121 56 -197t145 -76q86 0 141 77.5t55 197.5q0 117 -55 195.5t-137 78.5q-86 0 -145.5 -79.5t-59.5 -196.5z" />
<glyph unicode="&#x26;" horiz-adv-x="1226" d="M123 322q0 120 67 206.5t232 178.5q-90 108 -124 178t-34 147q0 129 91.5 216t226.5 87q130 0 217.5 -84.5t87.5 -210.5q0 -99 -55 -170.5t-207 -169.5l-15 -8q-14 -9 -24 -16l284 -326q33 43 82 151.5t64 170.5h102q-25 -104 -74.5 -214t-105.5 -184l236 -274h-136 l-168 188q-178 -202 -391 -202q-153 0 -254.5 95.5t-101.5 240.5zM229 322q0 -97 73.5 -165.5t176.5 -68.5q90 0 167 41.5t161 134.5l-318 367q-150 -93 -205 -158t-55 -151zM373 1036q0 -61 34 -125.5t113 -154.5q143 80 201.5 144t58.5 140q0 83 -58.5 141t-141.5 58 q-86 0 -146.5 -59t-60.5 -144z" />
<glyph unicode="'" horiz-adv-x="354" d="M109 1366h137l-29 -369h-82z" />
<glyph unicode="(" horiz-adv-x="641" d="M109 430q0 264 98.5 507t281.5 429h123q-203 -211 -297 -435.5t-94 -500.5q0 -277 92 -498.5t299 -439.5h-123q-186 195 -283 434.5t-97 503.5z" />
<glyph unicode=")" horiz-adv-x="641" d="M27 -508q209 220 302 440.5t93 497.5t-94.5 501t-300.5 435h123q184 -186 283 -428.5t99 -507.5t-97 -504t-285 -434h-123z" />
<glyph unicode="*" horiz-adv-x="913" d="M123 1081l35 111l254 -98l-13 272h115l-14 -272l254 98l37 -111l-263 -69l170 -213l-92 -68l-149 227l-150 -227l-92 68l170 213z" />
<glyph unicode="+" d="M82 645v103h385v372h102v-372h387v-103h-387v-373h-102v373h-385z" />
<glyph unicode="," horiz-adv-x="417" d="M137 0v207h144v-123q0 -124 -33 -197.5t-111 -124.5v107q25 26 32.5 49.5t10.5 81.5h-43z" />
<glyph unicode="-" horiz-adv-x="399" d="M0 420v102h399v-102h-399z" />
<glyph unicode="." horiz-adv-x="415" d="M137 0v209h144v-209h-144z" />
<glyph unicode="/" horiz-adv-x="1083" d="M-123 -508l973 1874h111l-971 -1874h-113z" />
<glyph unicode="0" d="M82 696q0 155 43 300t117 239q53 66 129 105.5t151 39.5q126 0 225.5 -87.5t155 -244t55.5 -354.5q0 -208 -55 -369t-154.5 -250t-228.5 -89q-126 0 -226 90.5t-156 252.5t-56 367zM193 686q0 -310 126 -481q38 -52 91.5 -82.5t107.5 -30.5q97 0 172.5 74t116.5 208.5 t41 307.5q0 263 -91 427.5t-237 164.5q-95 0 -169.5 -74.5t-116 -208.5t-41.5 -305z" />
<glyph unicode="1" d="M246 1036l368 330h70v-1366h-109v1214l-296 -268z" />
<glyph unicode="2" d="M66 0v37q187 153 413 457q217 288 217 497q0 123 -83.5 203t-211.5 80q-81 0 -156 -36t-159 -114v140q91 61 169.5 88.5t164.5 27.5q168 0 277.5 -111t109.5 -282q0 -173 -127 -385.5t-399 -497.5h639v-104h-854z" />
<glyph unicode="3" d="M170 1178v137q87 36 149 50.5t130 14.5q181 0 296 -102t115 -262q0 -116 -60.5 -201t-172.5 -125q116 -35 178.5 -121t62.5 -209q0 -161 -117.5 -267.5t-295.5 -106.5q-134 0 -279 71v136q140 -101 281 -101q131 0 216 77.5t85 197.5q0 124 -96 199t-256 75 q-77 0 -162 -23v148q110 -21 184 -21q142 0 232 74t90 191q0 115 -87.5 189.5t-222.5 74.5q-69 0 -126.5 -20.5t-143.5 -75.5z" />
<glyph unicode="4" d="M74 518v55l659 793h62v-745h168v-103h-168v-518h-109v518h-612zM242 621h444v542z" />
<glyph unicode="5" d="M143 72v133q67 -60 137.5 -86.5t161.5 -26.5q148 0 244 98t96 250q0 146 -95 237t-249 91q-82 0 -174 -33v631h555v-104h-446v-402q52 8 90 8q188 0 309 -121.5t121 -310.5q0 -190 -133 -320t-328 -130q-159 0 -289 86z" />
<glyph unicode="6" d="M135 432q0 162 76.5 332.5t214.5 320.5q121 130 340 283l61 -82q-226 -156 -345 -290.5t-179 -299.5q69 26 113 35.5t98 9.5q169 0 278 -105.5t109 -266.5q0 -166 -107 -274.5t-270 -108.5q-173 0 -281 124t-108 322zM248 436q0 -152 78 -248t202 -96q114 0 188.5 79 t74.5 200q0 120 -83.5 197t-213.5 77q-55 0 -102.5 -13.5t-123.5 -51.5q-20 -81 -20 -144z" />
<glyph unicode="7" d="M92 1262v104h854l-584 -1389l-98 48l529 1237h-701z" />
<glyph unicode="8" d="M127 371q0 221 213 331q-184 114 -184 310q0 155 106 261.5t260 106.5q159 0 266 -105t107 -261q0 -100 -51.5 -184t-141.5 -128q209 -114 209 -335q0 -161 -113.5 -271t-279.5 -110q-163 0 -277 112.5t-114 272.5zM238 381q0 -120 81.5 -204.5t198.5 -84.5t200 83.5 t83 201.5q0 117 -82.5 198.5t-200.5 81.5q-115 0 -197.5 -81.5t-82.5 -194.5zM266 1018q0 -110 75 -187t181 -77q109 0 185.5 76.5t76.5 183.5t-76.5 183.5t-185.5 76.5q-104 0 -180 -76t-76 -180z" />
<glyph unicode="9" d="M137 997q0 166 106.5 274.5t270.5 108.5q172 0 279.5 -124t107.5 -322q0 -162 -76 -332.5t-213 -320.5q-67 -71 -143 -134t-197 -149l-63 82q227 156 346 290.5t178 299.5q-67 -26 -111 -35.5t-100 -9.5q-167 0 -276 105.5t-109 266.5zM248 995q0 -120 83 -197t212 -77 q56 0 103.5 13.5t123.5 51.5q1 4 2 10t2 9q14 60 14 125q0 152 -77.5 248t-200.5 96q-114 0 -188 -79t-74 -200z" />
<glyph unicode=":" horiz-adv-x="415" d="M137 0v209h144v-209h-144zM137 690v209h144v-209h-144z" />
<glyph unicode=";" horiz-adv-x="417" d="M137 0v207h144v-123q0 -124 -33 -197.5t-111 -124.5v107q25 26 32.5 49.5t10.5 81.5h-43zM137 690v209h144v-209h-144z" />
<glyph unicode="&#x3c;" horiz-adv-x="1024" d="M68 641v92l886 400v-103l-776 -344l776 -344v-102z" />
<glyph unicode="=" d="M82 526v103h874v-103h-874zM82 764v102h874v-102h-874z" />
<glyph unicode="&#x3e;" horiz-adv-x="1024" d="M70 240v102l776 344l-776 344v103l886 -400v-92z" />
<glyph unicode="?" horiz-adv-x="608" d="M82 1171l61 177q65 32 140 32q112 0 177.5 -78t65.5 -212q0 -97 -28.5 -170.5t-128.5 -229.5q-80 -125 -80 -205q0 -69 49 -135l-47 -45q-94 85 -94 223q0 54 20 104.5t74 133.5q84 132 108.5 191t24.5 133q0 80 -39.5 129t-105.5 49q-109 0 -158 -113zM219 0v209h143 v-209h-143z" />
<glyph unicode="@" horiz-adv-x="1456" d="M63 662q0 167 58 308t166 238q97 86 217.5 132t249.5 46t246.5 -46t202.5 -124.5t135.5 -187t50.5 -227.5q0 -235 -189 -377q-136 -102 -280 -102q-93 0 -146 65q-104 -68 -203 -68q-91 0 -143.5 56t-52.5 151q0 79 35.5 166t97.5 158q83 95 201.5 146t253.5 51 q51 0 102 -7l-178 -551q-8 -24 -8 -45q0 -25 21.5 -41t55.5 -16q49 0 104.5 27.5t102.5 74.5q129 126 129 304q0 138 -71 254t-194.5 182.5t-270.5 66.5q-131 0 -249.5 -53.5t-201.5 -150.5q-68 -78 -104.5 -189.5t-36.5 -238.5q0 -267 161.5 -429.5t428.5 -162.5 q172 0 315 77.5t221 212.5l103 -2q-33 -70 -70.5 -118.5t-99.5 -98.5q-202 -163 -469 -163q-152 0 -280.5 50t-219 139.5t-141 216.5t-50.5 276zM483 563q0 -64 31.5 -101.5t85.5 -37.5q44 0 100 28t103 74l133 418q-6 -2 -12 -2h-29q-97 0 -181 -40t-141 -114 q-41 -53 -65.5 -113.5t-24.5 -111.5z" />
<glyph unicode="A" horiz-adv-x="1312" d="M27 0l596 1366h63l598 -1366h-129l-194 473h-617l-192 -473h-125zM391 575h527l-263 607z" />
<glyph unicode="B" horiz-adv-x="1062" d="M164 0v1366h262q123 0 183 -14t118 -56q66 -51 103.5 -127t37.5 -161q0 -103 -47 -173t-153 -126q148 -29 230.5 -119.5t82.5 -222.5q0 -106 -54.5 -196t-142.5 -130q-83 -41 -258 -41h-362zM274 102h132q217 0 294 25q75 23 119.5 86.5t44.5 148.5q0 78 -40.5 143.5 t-112.5 100.5q-43 20 -97.5 27.5t-164.5 7.5h-175v-539zM274 743h91q106 0 165 11.5t103 40.5q119 81 119 211q0 69 -33 128.5t-88 90.5q-68 39 -215 39h-142v-521z" />
<glyph unicode="C" horiz-adv-x="1277" d="M88 666q0 150 55 282.5t150 227t228 149.5t284 55q204 0 424 -116v-121q-125 70 -224.5 100.5t-201.5 30.5q-126 0 -237 -46.5t-190 -126.5t-125 -192t-46 -239q0 -120 44.5 -228.5t129.5 -191.5q82 -82 178.5 -120t222.5 -38q229 0 449 135v-118q-220 -123 -447 -123 q-198 0 -356.5 87.5t-248 243t-89.5 349.5z" />
<glyph unicode="D" horiz-adv-x="1415" d="M164 0v1366h414q179 0 291 -29t198 -98q120 -94 190 -246.5t70 -318.5q0 -190 -94 -349t-258 -247q-78 -41 -192 -59.5t-298 -18.5h-321zM274 102h244q172 0 261.5 17.5t166.5 68.5q127 79 195.5 206t68.5 284q0 165 -73.5 304t-200.5 212q-71 40 -152.5 55t-232.5 15 h-277v-1162z" />
<glyph unicode="E" horiz-adv-x="966" d="M164 0v1366h710v-102h-600v-523h592v-102h-592v-537h617v-102h-727z" />
<glyph unicode="F" horiz-adv-x="884" d="M164 0v1366h680v-102h-570v-494h517v-102h-517v-668h-110z" />
<glyph unicode="G" horiz-adv-x="1388" d="M88 674q0 148 54.5 279t148.5 224.5t225.5 148t280.5 54.5q213 0 417 -94v-123q-121 60 -217 85.5t-196 25.5q-260 0 -426 -172q-80 -84 -125 -197t-45 -231q0 -239 178 -414q89 -86 189.5 -127t224.5 -41q174 0 344 76v371h-258v102h368v-549q-136 -57 -241.5 -81.5 t-212.5 -24.5q-302 0 -504 202q-205 202 -205 486z" />
<glyph unicode="H" horiz-adv-x="1404" d="M164 0v1366h110v-623h856v623h111v-1366h-111v641h-856v-641h-110z" />
<glyph unicode="I" horiz-adv-x="438" d="M164 0v1366h110v-1366h-110z" />
<glyph unicode="J" horiz-adv-x="466" d="M-133 -219q51 -47 94.5 -67.5t93.5 -20.5q71 0 107 45q17 23 24 58.5t7 105.5v1464h110v-1399q0 -134 -8 -188t-33 -94q-29 -46 -82 -72.5t-117 -26.5q-93 0 -196 56v139z" />
<glyph unicode="K" horiz-adv-x="1138" d="M164 0v1366h110v-674l631 674h156l-666 -688l717 -678h-158l-680 666v-666h-110z" />
<glyph unicode="L" horiz-adv-x="964" d="M164 0v1366h110v-1264h650v-102h-760z" />
<glyph unicode="M" horiz-adv-x="1501" d="M164 0v1366h121l465 -614l479 614h108v-1366h-110v1190l-477 -617l-476 617v-1190h-110z" />
<glyph unicode="N" horiz-adv-x="1501" d="M164 0v1366h78l985 -1176v1176h110v-1366h-86l-977 1155v-1155h-110z" />
<glyph unicode="O" horiz-adv-x="1546" d="M90 692q0 129 55.5 261.5t147.5 224.5q199 202 479 202q186 0 343.5 -93t249 -253.5t91.5 -349.5q0 -190 -91.5 -351t-249 -254t-343.5 -93q-187 0 -344 94t-247.5 256t-90.5 356zM207 690q0 -163 75.5 -301t205.5 -217.5t284 -79.5q155 0 285.5 79t206 215.5t75.5 297.5 q0 160 -75.5 296t-206 215t-285.5 79q-151 0 -281.5 -79.5t-207 -214t-76.5 -290.5z" />
<glyph unicode="P" horiz-adv-x="1026" d="M164 0v1366h328q116 0 185.5 -13t119.5 -44q71 -46 114 -132.5t43 -181.5q0 -100 -50 -183.5t-136 -127.5q-87 -47 -266 -47h-228v-637h-110zM274 739h197q108 0 164.5 11.5t99.5 40.5q48 34 75.5 89.5t27.5 120.5q0 68 -30 128t-81 92q-39 26 -86.5 34.5t-146.5 8.5 h-220v-525z" />
<glyph unicode="Q" horiz-adv-x="1538" d="M88 698q0 192 89 348t245 245t348 89q194 0 350.5 -89t245 -246.5t88.5 -352.5q0 -158 -63.5 -299t-180.5 -241q-74 -63 -156 -99t-194 -53q89 -44 198.5 -73t188.5 -29q55 0 95.5 18t87.5 64l24 -37l-111 -138q-86 -4 -88 -4q-148 0 -280 46.5t-275 148.5 q-270 31 -441 226.5t-171 475.5zM205 700q0 -126 43.5 -237t119 -189.5t182.5 -124t230 -45.5q156 0 284 77t200.5 211.5t72.5 299.5q0 249 -161 415.5t-402 166.5q-244 0 -406.5 -164t-162.5 -410z" />
<glyph unicode="R" horiz-adv-x="1163" d="M164 0v1366h344q107 0 171 -16t114 -54q62 -51 97.5 -126t35.5 -156q0 -119 -63.5 -203t-184.5 -125q30 -14 62 -49t90.5 -123t168.5 -266q14 -22 66 -109l65 -92q17 -25 29 -47h-135l-260 416q-36 58 -58 91t-48.5 62t-45 42t-49.5 22.5t-60.5 11.5t-78.5 2h-150v-647 h-110zM274 750h177q92 0 148 13t97 44q113 81 113 211q0 63 -26 117.5t-72 85.5q-36 25 -85 34t-139 9h-213v-514z" />
<glyph unicode="S" horiz-adv-x="899" d="M96 1020q0 157 104.5 258.5t264.5 101.5q149 0 301 -96v-133q-141 123 -289 123q-114 0 -189 -71t-75 -177q0 -96 66 -162q32 -32 69 -55t119 -61q98 -45 147.5 -73.5t90.5 -62.5q114 -94 114 -258q0 -160 -106 -264t-269 -104q-179 0 -329 116v144q100 -88 168.5 -121 t150.5 -33q123 0 195.5 68t72.5 184q0 124 -94 193q-38 28 -70.5 46.5t-127.5 61.5q-131 62 -193 111q-121 98 -121 264z" />
<glyph unicode="T" horiz-adv-x="1099" d="M14 1264v102h1071v-102h-481v-1264h-110v1264h-480z" />
<glyph unicode="U" horiz-adv-x="1419" d="M164 616v750h110v-725q0 -144 15 -220t57 -142q54 -86 152 -136.5t211 -50.5q118 0 219 57t157 154q60 105 60 363v700h110v-784q0 -270 -133 -418q-76 -86 -182.5 -132t-228.5 -46q-139 0 -260.5 60.5t-192.5 164.5q-50 75 -72 170.5t-22 234.5z" />
<glyph unicode="V" horiz-adv-x="1200" d="M27 1366h127l444 -1126l457 1126h116l-550 -1366h-41z" />
<glyph unicode="W" horiz-adv-x="2050" d="M27 1366h110l438 -1145l424 1145h54l426 -1130l428 1130h114l-522 -1366h-37l-438 1130l-424 -1130h-45z" />
<glyph unicode="X" horiz-adv-x="1421" d="M27 0l610 707l-574 659h154l494 -578l487 578h150l-566 -657l611 -709h-148l-538 623l-531 -623h-149z" />
<glyph unicode="Y" horiz-adv-x="1169" d="M16 1366h146l413 -530l429 530h149l-526 -627v-739h-111v739z" />
<glyph unicode="Z" horiz-adv-x="1304" d="M63 0l965 1264h-893v102h1104l-952 -1264h927v-102h-1151z" />
<glyph unicode="[" horiz-adv-x="552" d="M178 -492v1858h252v-88h-141v-1681h141v-89h-252z" />
<glyph unicode="\" horiz-adv-x="1083" d="M123 1366h113l970 -1874h-110z" />
<glyph unicode="]" horiz-adv-x="552" d="M123 -403h141v1681h-141v88h252v-1858h-252v89z" />
<glyph unicode="^" horiz-adv-x="1024" d="M68 772l376 596h136l374 -596h-116l-328 516l-328 -516h-114z" />
<glyph unicode="_" horiz-adv-x="1024" d="M0 -150h1024v-96h-1024v96z" />
<glyph unicode="`" horiz-adv-x="1024" d="M252 1296h143l185 -278h-93z" />
<glyph unicode="a" horiz-adv-x="847" d="M88 229q0 88 57.5 160t155.5 107q60 23 114 31t175 14v77q0 193 -178 193q-68 0 -132 -31.5t-139 -101.5v119q147 116 291 116q68 0 123.5 -27.5t87.5 -76.5q41 -61 41 -199v-471q0 -35 2.5 -43t11.5 -8q30 0 113 86v-96q-130 -90 -174 -90q-25 0 -39 22t-14 62q0 6 2 12 q-74 -52 -128 -73t-110 -21q-112 0 -186 68t-74 171zM195 233q0 -66 46 -105.5t121 -39.5q103 0 222 78v301q-152 -9 -222 -35q-76 -26 -121.5 -80t-45.5 -119z" />
<glyph unicode="b" horiz-adv-x="987" d="M137 47v1319h103v-586q72 72 136 102.5t142 30.5q166 0 276.5 -126t110.5 -316q0 -206 -139 -343.5t-348 -137.5q-132 0 -281 57zM240 127q85 -39 186 -39q161 0 267 107t106 270q0 149 -84 249.5t-209 100.5q-120 0 -266 -137v-551z" />
<glyph unicode="c" horiz-adv-x="780" d="M84 461q0 195 122.5 323.5t309.5 128.5q104 0 213 -49v-96q-115 47 -203 47q-146 0 -241 -100.5t-95 -257.5q0 -164 92 -266.5t240 -102.5q109 0 226 53v-102q-114 -49 -242 -49q-184 0 -303 132.5t-119 338.5z" />
<glyph unicode="d" horiz-adv-x="989" d="M84 453q0 190 131.5 325t316.5 135q113 0 220 -65v518h102v-1366h-102v51q-113 -61 -226 -61q-185 0 -313.5 135t-128.5 328zM188 451q0 -151 103.5 -257t251.5 -106q105 0 209 62v593q-110 72 -215 72q-145 0 -247 -106.5t-102 -257.5z" />
<glyph unicode="e" horiz-adv-x="917" d="M84 463q0 195 113.5 322.5t285.5 127.5q161 0 261 -107.5t100 -279.5q0 -23 -2 -41h-649q0 -186 83.5 -291.5t229.5 -105.5q84 0 153.5 25.5t159.5 89.5v-107q-153 -106 -327 -106q-175 0 -291.5 135t-116.5 338zM207 573h532q-12 109 -81.5 175.5t-172.5 66.5t-181 -68 t-97 -174z" />
<glyph unicode="f" horiz-adv-x="483" d="M27 809v90h157v66q0 171 33 249q37 85 110.5 132t170.5 47q70 0 147 -29v-107q-86 35 -145 35q-148 0 -193 -133q-18 -59 -18 -190v-70h172v-90h-174v-809h-103v809h-157z" />
<glyph unicode="g" horiz-adv-x="864" d="M49 -217q0 98 62.5 159t181.5 78q-55 20 -88 55.5t-33 74.5q0 50 37.5 83t120.5 58q-98 32 -155.5 112.5t-57.5 184.5q0 135 97.5 223t246.5 88h370v-82l-204 8q118 -81 118 -241q0 -167 -137 -254q-34 -22 -67 -34.5t-135 -41.5q-127 -38 -127 -88q0 -37 41 -59.5 t133 -34.5q123 -17 171.5 -31t94.5 -45q106 -74 106 -195q0 -126 -110 -206t-281 -80t-278 74t-107 194zM156 -215q0 -75 77.5 -123.5t200.5 -48.5q131 0 208 48.5t77 131.5q0 85 -75.5 132.5t-209.5 47.5q-128 0 -198 -45q-36 -22 -58 -61.5t-22 -81.5zM223 590 q0 -92 60.5 -156.5t146.5 -64.5q88 0 148.5 63t60.5 154t-60.5 153t-148.5 62q-85 0 -146 -62.5t-61 -148.5z" />
<glyph unicode="h" horiz-adv-x="960" d="M137 0v1366h103v-612q57 84 120 121.5t146 37.5q91 0 163.5 -43t112.5 -120q43 -79 43 -258v-492h-102v492q0 323 -229 323q-75 0 -137 -41t-117 -129v-645h-103z" />
<glyph unicode="i" horiz-adv-x="374" d="M137 0v899h103v-899h-103zM137 1141v162h103v-162h-103z" />
<glyph unicode="j" horiz-adv-x="374" d="M-57 -393q92 0 145 59q27 32 37 75.5t10 129.5v1028h103v-1001q0 -118 -14 -179t-52 -112q-71 -99 -195 -99zM135 1141v162h103v-162h-103z" />
<glyph unicode="k" horiz-adv-x="942" d="M137 0v1366h103v-897l469 430h147l-485 -442l579 -457h-162l-548 444v-444h-103z" />
<glyph unicode="l" horiz-adv-x="374" d="M137 0v1366h103v-1366h-103z" />
<glyph unicode="m" horiz-adv-x="1472" d="M137 0v899h103v-104q66 63 122.5 90.5t122.5 27.5q85 0 144 -37.5t110 -123.5q81 92 143 126.5t144 34.5q86 0 158 -45t110 -123q41 -77 41 -239v-506h-102v506q0 145 -45 213q-66 96 -182 96q-70 0 -126.5 -35t-109.5 -110q16 -76 16 -166v-504h-102v506q0 143 -37 207 q-60 102 -184 102q-129 0 -223 -123v-692h-103z" />
<glyph unicode="n" horiz-adv-x="952" d="M137 0v899h103v-145q60 86 122.5 122.5t149.5 36.5q77 0 144 -36.5t108 -102.5q53 -79 53 -235v-539h-102v516q0 154 -53.5 226.5t-167.5 72.5q-157 0 -254 -166v-649h-103z" />
<glyph unicode="o" horiz-adv-x="1036" d="M84 461q0 122 58.5 226t158.5 165t217 61q181 0 308.5 -135t127.5 -327q0 -126 -58.5 -232t-159.5 -167.5t-220 -61.5t-218.5 62t-156.5 170.5t-57 238.5zM190 459q0 -156 94.5 -263.5t231.5 -107.5q138 0 235 107t97 258q0 150 -97.5 256t-234.5 106q-135 0 -230.5 -104 t-95.5 -252z" />
<glyph unicode="p" horiz-adv-x="974" d="M137 -492v1391h103v-49q55 34 101.5 48.5t104.5 14.5q192 0 319.5 -134t127.5 -335q0 -190 -127.5 -322t-310.5 -132q-57 0 -104.5 14t-110.5 49v-545h-103zM240 150q100 -62 202 -62q143 0 243.5 104.5t100.5 253.5q0 157 -102 263t-254 106q-94 0 -190 -51v-614z" />
<glyph unicode="q" horiz-adv-x="978" d="M82 438q0 98 32.5 185.5t92.5 150.5q58 61 146.5 100t170.5 39q56 0 116.5 -16t100.5 -41v43h103v-1391h-103v539q-111 -57 -237 -57q-178 0 -300 129.5t-122 318.5zM188 444q0 -150 101 -253t248 -103q106 0 204 49v627q-97 51 -198 51q-59 0 -129 -30.5t-119 -77.5 q-107 -104 -107 -263z" />
<glyph unicode="r" horiz-adv-x="741" d="M137 0v899h103v-223q78 126 145.5 181.5t142.5 55.5q57 0 101 -26t94 -88l-72 -94q-39 61 -73.5 85.5t-77.5 24.5q-85 0 -174 -123q-51 -69 -68.5 -122t-17.5 -136v-434h-103z" />
<glyph unicode="s" horiz-adv-x="704" d="M88 78v137q121 -127 260 -127q82 0 132 40t50 105q0 58 -34.5 92.5t-147.5 88.5q-142 66 -192 118.5t-50 135.5q0 103 84 174t205 71q107 0 211 -61v-125q-54 47 -104.5 67.5t-110.5 20.5q-80 0 -129 -37t-49 -98q0 -35 17.5 -60.5t58.5 -52.5q32 -21 186 -96 q162 -80 162 -227q0 -109 -81 -181.5t-202 -72.5q-67 0 -127 20t-139 68z" />
<glyph unicode="t" horiz-adv-x="641" d="M20 801v98h216v166l102 96v-262h248v-98h-248v-549q0 -88 28.5 -126t94.5 -38q63 0 149 41v-106q-95 -35 -170 -35q-55 0 -100.5 25t-71.5 69q-32 53 -32 170v549h-216z" />
<glyph unicode="u" horiz-adv-x="948" d="M137 342v557h103v-522q0 -129 32 -191q23 -46 72 -72t111 -26q76 0 149 45t105 113v653h102v-899h-102v145q-105 -155 -265 -155q-79 0 -147.5 34.5t-108.5 94.5q-51 79 -51 223z" />
<glyph unicode="v" horiz-adv-x="862" d="M20 899h99l309 -735l311 735h103l-385 -899h-62z" />
<glyph unicode="w" horiz-adv-x="1378" d="M20 899h103l280 -704l254 704h78l240 -706l291 706h92l-363 -899h-51l-254 750l-262 -750h-47z" />
<glyph unicode="x" horiz-adv-x="983" d="M20 0l404 459l-401 440h139l323 -371l332 371h125l-391 -440l412 -459h-142l-336 381l-333 -381h-132z" />
<glyph unicode="y" horiz-adv-x="890" d="M20 -492l369 701l-340 690h107l290 -592l316 592h108l-737 -1391h-113z" />
<glyph unicode="z" horiz-adv-x="913" d="M47 0l619 811h-572v88h770l-622 -811h604v-88h-799z" />
<glyph unicode="{" horiz-adv-x="552" d="M47 401v95q63 17 90 57.5t27 118.5v446q0 140 67 202t218 62h43v-90q-130 -3 -175 -41.5t-45 -146.5v-438q0 -93 -20 -141.5t-74 -80.5q53 -34 73.5 -83.5t20.5 -141.5v-426q0 -114 44 -152.5t176 -41.5v-91h-48q-152 0 -216 66t-64 223v420q0 83 -26.5 125t-90.5 59z " />
<glyph unicode="|" horiz-adv-x="1024" d="M461 -342v1708h102v-1708h-102z" />
<glyph unicode="}" horiz-adv-x="552" d="M61 -401q131 3 174.5 41.5t43.5 152.5v426q0 92 20.5 141.5t73.5 83.5q-54 32 -74 80.5t-20 141.5v438q0 109 -44.5 147t-173.5 41v90h43q149 0 216 -62.5t67 -201.5v-446q0 -78 27.5 -118.5t91.5 -57.5v-95q-65 -17 -92 -59t-27 -125v-420q0 -157 -64.5 -223t-216.5 -66 h-45v91z" />
<glyph unicode="~" horiz-adv-x="1366" d="M193 1253q63 119 123.5 168t144.5 49q82 0 237 -77q93 -45 131.5 -59.5t75.5 -14.5q60 0 105 34t96 120l65 -39q-56 -109 -123 -161t-153 -52q-47 0 -96 17.5t-189 86.5q-98 49 -155 49t-103.5 -38t-93.5 -124z" />
<glyph unicode="&#xa1;" horiz-adv-x="466" d="M164 690v209h139v-209h-139zM166 -467l8 723l23 287h71l23 -287l10 -723h-135z" />
<glyph unicode="&#xa2;" d="M188 698q0 181 90.5 298t256.5 151v174h94v-168q115 -4 194 -47v-92q-78 48 -194 51v-733q65 3 106 13.5t117 43.5v-100q-98 -45 -203 -45h-20v-203h-94v209q-163 37 -255 156t-92 292zM291 709q0 -135 67 -235.5t177 -131.5v711q-115 -26 -179.5 -116.5t-64.5 -227.5z " />
<glyph unicode="&#xa3;" d="M88 -8l166 631h-164v98h191q67 217 107.5 316t92.5 169q135 183 326 183q30 0 84 -11l53 -131q-102 31 -156 31q-173 0 -286 -234q-42 -88 -117 -323h205v-98h-234l-133 -506q133 20 221 20q68 0 209 -16q106 -12 140 -12q46 0 79 12t78 45v-125q-82 -43 -176 -43 q-51 0 -166 18q-132 21 -209 21q-67 0 -125.5 -8.5t-185.5 -36.5z" />
<glyph unicode="&#xa4;" horiz-adv-x="1370" d="M121 1178l80 79l192 -190q86 58 149 80t142 22q78 0 140.5 -22t146.5 -80l192 190l80 -79l-188 -189q102 -142 102 -291q0 -76 -22 -139t-78 -145l190 -191l-80 -80l-190 189q-132 -103 -285 -103q-140 0 -299 103l-188 -189l-80 80l186 189q-100 136 -100 290 q0 75 22.5 137.5t79.5 147.5zM330 700q0 -148 104 -252t250 -104t250 104t104 252q0 146 -103.5 251.5t-246.5 105.5q-150 0 -254 -103.5t-104 -253.5z" />
<glyph unicode="&#xa5;" d="M86 1366h113l309 -633l326 633h116l-254 -479h232v-99h-285l-70 -133h314v-98h-328v-557h-110v557h-299v98h286l-65 133h-262v99h213z" />
<glyph unicode="&#xa6;" horiz-adv-x="1024" d="M461 313h102v-655h-102v655zM461 694v672h102v-672h-102z" />
<glyph unicode="&#xa7;" horiz-adv-x="1005" d="M164 487q0 188 198 304q-90 79 -131 151t-41 150q0 121 92 204.5t226 83.5q138 0 215.5 -81t83.5 -234h-102q-7 60 -17 88.5t-29 52.5q-57 72 -155 72q-88 0 -143.5 -51t-55.5 -133q0 -58 30 -103t124 -127l215 -186q104 -91 136 -140t32 -120q0 -168 -203 -309 q100 -83 139 -149.5t39 -152.5q0 -131 -85 -207.5t-230 -76.5q-97 0 -160.5 31.5t-103.5 99.5q-19 32 -31 81t-12 93q0 6 2 10h106q4 -58 13 -87.5t28 -53.5q51 -70 162 -70q91 0 145 48t54 130q0 60 -34.5 110t-135.5 136l-189 158q-118 98 -150 147t-32 131zM272 496 q0 -41 16 -67.5t64 -70.5l211 -186q164 120 164 238q0 40 -16.5 67t-65.5 70l-207 180q-166 -99 -166 -231z" />
<glyph unicode="&#xa8;" horiz-adv-x="1024" d="M262 1141q0 34 25 58t59 24t58 -24.5t24 -59.5q0 -34 -24 -58t-58 -24q-35 0 -59.5 24.5t-24.5 59.5zM596 1141q0 34 25 58t59 24t58 -24.5t24 -59.5q0 -34 -24 -58t-58 -24q-35 0 -59.5 24.5t-24.5 59.5z" />
<glyph unicode="&#xa9;" horiz-adv-x="1574" d="M82 682q0 146 56 277t151.5 225t228 149.5t279.5 55.5q140 0 269 -56.5t222.5 -151t149 -225t55.5 -272.5q0 -192 -94.5 -355t-257 -257.5t-353.5 -94.5q-143 0 -274 56t-225.5 151t-150.5 225t-56 273zM164 682q0 -127 49.5 -244t133 -201.5t199 -135t242.5 -50.5 q169 0 312.5 84.5t227 230.5t83.5 318q0 169 -83 314.5t-225 231t-306 85.5q-174 0 -319.5 -84t-229.5 -229.5t-84 -319.5zM358 672q0 183 129.5 305.5t321.5 122.5q127 0 270 -70v-88q-83 44 -144 62t-126 18q-156 0 -260.5 -99.5t-104.5 -248.5q0 -143 100 -237.5 t251 -94.5q140 0 284 84v-86q-140 -76 -284 -76q-189 0 -313 115.5t-124 292.5z" />
<glyph unicode="&#xaa;" horiz-adv-x="690" d="M84 600v82h522v-82h-522zM127 973q0 54 34.5 97t94.5 65q54 21 166 26v41q0 109 -100 109q-39 0 -76 -19.5t-88 -64.5v84q86 71 176 71q155 0 155 -184v-276q0 -25 5 -25q15 0 69 57v-71q-82 -56 -106 -56q-34 0 -37 52q-77 -52 -133 -52q-69 0 -114.5 41.5t-45.5 104.5z M201 975q0 -35 25.5 -56.5t68.5 -21.5q61 0 123 43v168q-217 -12 -217 -133z" />
<glyph unicode="&#xab;" horiz-adv-x="802" d="M109 471l180 344h114l-174 -344l174 -344h-114zM397 471l181 344h114l-174 -344l174 -344h-114z" />
<glyph unicode="&#xac;" horiz-adv-x="1024" d="M68 451v96h886v-547h-102v451h-784z" />
<glyph unicode="&#xad;" horiz-adv-x="399" d="M0 420v102h399v-102h-399z" />
<glyph unicode="&#xae;" horiz-adv-x="1574" d="M82 682q0 146 56 277t151.5 225t228 149.5t279.5 55.5q140 0 269 -56.5t222.5 -151t149 -225t55.5 -272.5q0 -192 -94.5 -355t-257 -257.5t-353.5 -94.5q-143 0 -274 56t-225.5 151t-150.5 225t-56 273zM164 682q0 -127 49.5 -244t133 -201.5t199 -135t242.5 -50.5 q169 0 312.5 84.5t227 230.5t83.5 318q0 169 -83 314.5t-225 231t-306 85.5q-174 0 -319.5 -84t-229.5 -229.5t-84 -319.5zM522 272v820h221q122 0 179 -43q40 -29 63 -75t23 -95q0 -68 -38.5 -120t-105.5 -75q36 -32 64 -69t125 -185q9 -14 19 -30t15 -23.5t7 -9.5 q15 -23 41 -56q1 -3 4 -8t9 -14t11 -17h-100l-164 250q-60 92 -91.5 112.5t-113.5 20.5h-86v-383h-82zM604 729h103q97 0 147 33q68 47 68 119q0 74 -58 112q-40 25 -135 25h-125v-289z" />
<glyph unicode="&#xaf;" horiz-adv-x="1024" d="M246 1081v99h532v-99h-532z" />
<glyph unicode="&#xb0;" horiz-adv-x="819" d="M109 1096q0 121 89 209t212 88t211 -88t88 -211q0 -124 -88 -212.5t-211 -88.5q-126 0 -213.5 88.5t-87.5 214.5zM190 1096q0 -92 64 -157t156 -65q89 0 153 64.5t64 155.5q0 89 -64 153t-153 64q-91 0 -155.5 -63.5t-64.5 -151.5z" />
<glyph unicode="&#xb1;" d="M82 31v102h874v-102h-874zM82 645v103h385v372h102v-372h387v-103h-387v-373h-102v373h-385z" />
<glyph unicode="&#xb2;" horiz-adv-x="710" d="M61 547v33q123 93 261 270q135 169 135 289q0 69 -50.5 114t-127.5 45q-53 0 -100 -22t-105 -74v101q114 71 217 71q109 0 179.5 -67t70.5 -170q0 -198 -322 -514h393v-76h-551z" />
<glyph unicode="&#xb3;" horiz-adv-x="710" d="M129 1237v96q103 41 182 41q117 0 192 -62t75 -159q0 -66 -30.5 -109.5t-101.5 -82.5q72 -32 105 -79t33 -116q0 -98 -75.5 -162.5t-191.5 -64.5q-89 0 -184 45v96q100 -66 184 -66q78 0 130.5 44t52.5 110q0 70 -59 113t-156 43q-41 0 -109 -15v105q65 -15 121 -15 q87 0 142 42t55 108q0 65 -52.5 107t-134.5 42q-45 0 -81 -12.5t-97 -48.5z" />
<glyph unicode="&#xb4;" horiz-adv-x="1024" d="M446 1018l185 278h143l-235 -278h-93z" />
<glyph unicode="&#xb5;" horiz-adv-x="948" d="M137 -467v1366h103v-551q0 -42 9 -89.5t21 -72.5q25 -46 74 -72t111 -26q76 0 149 45t105 113v653h102v-899h-102v145q-104 -155 -258 -155q-137 0 -211 112v-569h-103z" />
<glyph unicode="&#xb6;" d="M98 1001q0 100 46.5 184t125.5 128q100 53 273 53h491v-94h-121v-1764h-110v1764h-182v-1764h-111v1133h-35q-165 0 -271 101t-106 259z" />
<glyph unicode="&#xb7;" horiz-adv-x="415" d="M137 356v209h144v-209h-144z" />
<glyph unicode="&#xb8;" horiz-adv-x="1024" d="M338 -334l33 55q41 -23 61 -29.5t49 -6.5q43 0 67.5 20t24.5 57q0 64 -67 64q-27 0 -80 -23l-39 47l109 150h71l-90 -123q44 12 72 12q56 0 89.5 -32t33.5 -84q0 -66 -55 -109t-138 -43q-77 0 -141 45z" />
<glyph unicode="&#xb9;" horiz-adv-x="710" d="M176 1167l238 199h53v-819h-82v708l-184 -155z" />
<glyph unicode="&#xba;" horiz-adv-x="690" d="M84 600v82h522v-82h-522zM84 1110q0 112 77 192t183 80q110 0 187 -81t77 -197q0 -115 -77.5 -196t-186.5 -81t-184.5 82.5t-75.5 200.5zM158 1108q0 -89 54 -150t132 -61t134.5 61.5t56.5 147.5t-56.5 146.5t-134.5 60.5q-77 0 -131.5 -60t-54.5 -145z" />
<glyph unicode="&#xbb;" horiz-adv-x="802" d="M109 127l174 344l-174 344h114l180 -344l-180 -344h-114zM397 127l174 344l-174 344h113l182 -344l-182 -344h-113z" />
<glyph unicode="&#xbc;" horiz-adv-x="1699" d="M174 1167l238 199h53v-819h-82v708l-184 -155zM430 0l758 1366h84l-754 -1366h-88zM1059 305v41l418 473h49v-440h106v-74h-106v-305h-82v305h-385zM1186 379h258v295z" />
<glyph unicode="&#xbd;" horiz-adv-x="1699" d="M174 1167l238 199h53v-819h-82v708l-184 -155zM430 0l758 1366h84l-754 -1366h-88zM1053 0v33q107 76 262 270q133 164 133 289q0 69 -50 114.5t-128 45.5q-95 0 -203 -97v101q111 71 215 71q109 0 179.5 -67t70.5 -170q0 -102 -77.5 -226.5t-242.5 -287.5h392v-76h-551z " />
<glyph unicode="&#xbe;" horiz-adv-x="1699" d="M129 1237v96q103 41 182 41q117 0 192 -62t75 -159q0 -66 -30.5 -109.5t-101.5 -82.5q72 -32 105 -79t33 -116q0 -98 -75.5 -162.5t-191.5 -64.5q-89 0 -184 45v96q100 -66 184 -66q78 0 130.5 44t52.5 110q0 70 -59 113t-156 43q-41 0 -109 -15v105q65 -15 121 -15 q87 0 142 42t55 108q0 65 -52.5 107t-134.5 42q-45 0 -81 -12.5t-97 -48.5zM430 0l758 1366h84l-754 -1366h-88zM1059 305v41l420 473h49v-440h106v-74h-106v-305h-82v305h-387zM1186 379h260v295z" />
<glyph unicode="&#xbf;" horiz-adv-x="608" d="M82 -190q0 95 29 167.5t129 229.5q79 126 79 207q0 69 -49 135l47 45q95 -89 95 -223q0 -53 -20 -103.5t-75 -134.5q-85 -132 -109 -190.5t-24 -132.5q0 -80 40 -129.5t106 -49.5q108 0 157 113l39 -16l-61 -177q-65 -32 -139 -32q-112 0 -178 78.5t-66 212.5zM244 690 v209h143v-209h-143z" />
<glyph unicode="&#xc0;" horiz-adv-x="1312" d="M27 0l596 1366h63l598 -1366h-129l-194 473h-617l-192 -473h-125zM362 1720h152l191 -260h-99zM391 575h527l-263 607z" />
<glyph unicode="&#xc1;" horiz-adv-x="1312" d="M27 0l596 1366h63l598 -1366h-129l-194 473h-617l-192 -473h-125zM391 575h527l-263 607zM608 1460l193 260h149l-243 -260h-99z" />
<glyph unicode="&#xc2;" horiz-adv-x="1312" d="M27 0l596 1366h63l598 -1366h-129l-194 473h-617l-192 -473h-125zM356 1460l250 260h115l248 -260h-95l-210 152l-211 -152h-97zM391 575h527l-263 607z" />
<glyph unicode="&#xc3;" horiz-adv-x="1312" d="M27 0l596 1366h63l598 -1366h-129l-194 473h-617l-192 -473h-125zM365 1485q17 100 54 145t103 45q36 0 69.5 -10.5t137.5 -56.5q60 -25 88 -25q34 0 53.5 20.5t32.5 69.5h78q-24 -192 -174 -192q-32 0 -60.5 8.5t-87.5 34.5q-106 49 -139 49q-32 0 -48.5 -18t-29.5 -70 h-77zM391 575h527l-263 607z" />
<glyph unicode="&#xc4;" horiz-adv-x="1312" d="M27 0l596 1366h63l598 -1366h-129l-194 473h-617l-192 -473h-125zM369 1577q0 32 25 57t59 25q35 0 59.5 -24.5t24.5 -59.5q0 -34 -25 -59t-59 -25q-35 0 -59.5 25.5t-24.5 60.5zM391 575h527l-263 607zM774 1577q0 32 25 57t59 25q35 0 59.5 -24.5t24.5 -59.5 q0 -34 -25 -59t-59 -25q-35 0 -59.5 25.5t-24.5 60.5z" />
<glyph unicode="&#xc5;" horiz-adv-x="1312" d="M27 0l596 1366h63l598 -1366h-129l-194 473h-617l-192 -473h-125zM391 575h527l-263 607zM496 1597q0 65 47.5 111.5t113.5 46.5t113 -47t47 -113t-47 -113.5t-113 -47.5q-68 0 -114.5 47t-46.5 116zM578 1595q0 -34 22.5 -56.5t56.5 -22.5q33 0 55.5 23t22.5 56 q0 32 -23 55t-55 23t-55.5 -23t-23.5 -55z" />
<glyph unicode="&#xc6;" horiz-adv-x="1703" d="M14 0l817 1366h777v-102h-607v-525h594v-102h-594v-535h629v-102h-739v637h-363l-378 -637h-136zM586 739h305v510z" />
<glyph unicode="&#xc7;" horiz-adv-x="1277" d="M88 666q0 150 55 282.5t150 227t228 149.5t284 55q204 0 424 -116v-121q-125 70 -224.5 100.5t-201.5 30.5q-126 0 -237 -46.5t-190 -126.5t-125 -192t-46 -239q0 -120 44.5 -228.5t129.5 -191.5q82 -82 178.5 -120t222.5 -38q229 0 449 135v-118q-220 -123 -455 -123 h-14l-98 -125q57 16 86 16q63 0 101 -35t38 -92q0 -72 -61.5 -120t-155.5 -48q-84 0 -158 49l37 62q45 -26 68.5 -33.5t54.5 -7.5q49 0 76.5 23t27.5 63q0 33 -20 51t-56 18q-35 0 -90 -24l-43 51l117 158q-266 32 -431 219t-165 455z" />
<glyph unicode="&#xc8;" horiz-adv-x="966" d="M164 0v1366h710v-102h-600v-523h592v-102h-592v-537h617v-102h-727zM270 1720h152l190 -260h-98z" />
<glyph unicode="&#xc9;" horiz-adv-x="966" d="M164 0v1366h710v-102h-600v-523h592v-102h-592v-537h617v-102h-727zM494 1460l192 260h150l-244 -260h-98z" />
<glyph unicode="&#xca;" horiz-adv-x="966" d="M164 0v1366h710v-102h-600v-523h592v-102h-592v-537h617v-102h-727zM227 1460l250 260h115l248 -260h-95l-210 152l-211 -152h-97z" />
<glyph unicode="&#xcb;" horiz-adv-x="966" d="M164 0v1366h710v-102h-600v-523h592v-102h-592v-537h617v-102h-727zM242 1577q0 32 25 57t59 25q35 0 59.5 -24.5t24.5 -59.5q0 -34 -25 -59t-59 -25q-35 0 -59.5 25.5t-24.5 60.5zM647 1577q0 32 25 57t59 25q35 0 59.5 -24.5t24.5 -59.5q0 -34 -25 -59t-59 -25 q-35 0 -59.5 25.5t-24.5 60.5z" />
<glyph unicode="&#xcc;" horiz-adv-x="438" d="M-51 1720h147l178 -260h-98zM166 0v1366h110v-1366h-110z" />
<glyph unicode="&#xcd;" horiz-adv-x="438" d="M164 0v1366h110v-1366h-110zM174 1460l178 260h148l-228 -260h-98z" />
<glyph unicode="&#xce;" horiz-adv-x="438" d="M-33 1460l201 260h115l202 -260h-90l-170 154l-170 -154h-88zM164 0v1366h110v-1366h-110z" />
<glyph unicode="&#xcf;" horiz-adv-x="438" d="M4 1577q0 32 25 57t59 25q35 0 59.5 -24.5t24.5 -59.5q0 -34 -25 -59t-59 -25q-35 0 -59.5 25.5t-24.5 60.5zM164 0v1366h110v-1366h-110zM281 1577q0 32 25 57t59 25q35 0 59.5 -24.5t24.5 -59.5q0 -34 -25 -59t-59 -25q-35 0 -59.5 25.5t-24.5 60.5z" />
<glyph unicode="&#xd0;" horiz-adv-x="1415" d="M27 641v102h137v623h414q179 0 291 -29t198 -98q120 -95 190 -247t70 -318q0 -190 -94 -349t-258 -247q-78 -41 -192 -59.5t-298 -18.5h-321v641h-137zM274 102h244q172 0 261.5 17.5t166.5 68.5q127 79 195.5 206t68.5 282q0 166 -73.5 305.5t-200.5 212.5 q-71 40 -152.5 55t-232.5 15h-277v-521h410v-102h-410v-539z" />
<glyph unicode="&#xd1;" horiz-adv-x="1501" d="M164 0v1366h78l985 -1176v1176h110v-1366h-86l-977 1155v-1155h-110zM473 1485q17 100 54.5 145t103.5 45q36 0 69.5 -10.5t137.5 -56.5q60 -25 88 -25q34 0 53.5 20.5t32.5 69.5h78q-24 -192 -175 -192q-32 0 -60 8.5t-87 34.5q-106 49 -139 49q-32 0 -48.5 -18 t-29.5 -70h-78z" />
<glyph unicode="&#xd2;" horiz-adv-x="1546" d="M90 692q0 129 55.5 261.5t147.5 224.5q199 202 479 202q186 0 343.5 -93t249 -253.5t91.5 -349.5q0 -190 -91.5 -351t-249 -254t-343.5 -93q-187 0 -344 94t-247.5 256t-90.5 356zM207 690q0 -163 75.5 -301t205.5 -217.5t284 -79.5q155 0 285.5 79t206 215.5t75.5 297.5 q0 160 -75.5 296t-206 215t-285.5 79q-151 0 -281.5 -79.5t-207 -214t-76.5 -290.5zM506 1720h151l191 -260h-98z" />
<glyph unicode="&#xd3;" horiz-adv-x="1546" d="M90 692q0 129 55.5 261.5t147.5 224.5q199 202 479 202q186 0 343.5 -93t249 -253.5t91.5 -349.5q0 -190 -91.5 -351t-249 -254t-343.5 -93q-187 0 -344 94t-247.5 256t-90.5 356zM207 690q0 -163 75.5 -301t205.5 -217.5t284 -79.5q155 0 285.5 79t206 215.5t75.5 297.5 q0 160 -75.5 296t-206 215t-285.5 79q-151 0 -281.5 -79.5t-207 -214t-76.5 -290.5zM717 1460l192 260h150l-244 -260h-98z" />
<glyph unicode="&#xd4;" horiz-adv-x="1546" d="M90 692q0 129 55.5 261.5t147.5 224.5q199 202 479 202q186 0 343.5 -93t249 -253.5t91.5 -349.5q0 -190 -91.5 -351t-249 -254t-343.5 -93q-187 0 -344 94t-247.5 256t-90.5 356zM207 690q0 -163 75.5 -301t205.5 -217.5t284 -79.5q155 0 285.5 79t206 215.5t75.5 297.5 q0 160 -75.5 296t-206 215t-285.5 79q-151 0 -281.5 -79.5t-207 -214t-76.5 -290.5zM473 1460l250 260h115l247 -260h-94l-211 152l-211 -152h-96z" />
<glyph unicode="&#xd5;" horiz-adv-x="1546" d="M90 692q0 129 55.5 261.5t147.5 224.5q199 202 479 202q186 0 343.5 -93t249 -253.5t91.5 -349.5q0 -190 -91.5 -351t-249 -254t-343.5 -93q-187 0 -344 94t-247.5 256t-90.5 356zM207 690q0 -163 75.5 -301t205.5 -217.5t284 -79.5q155 0 285.5 79t206 215.5t75.5 297.5 q0 160 -75.5 296t-206 215t-285.5 79q-151 0 -281.5 -79.5t-207 -214t-76.5 -290.5zM496 1485q17 100 54 145t103 45q36 0 69.5 -10.5t137.5 -56.5q60 -25 88 -25q34 0 53.5 20.5t32.5 69.5h78q-24 -192 -174 -192q-32 0 -60 8.5t-87 34.5q-106 49 -140 49q-32 0 -48.5 -18 t-29.5 -70h-77z" />
<glyph unicode="&#xd6;" horiz-adv-x="1546" d="M90 692q0 129 55.5 261.5t147.5 224.5q199 202 479 202q186 0 343.5 -93t249 -253.5t91.5 -349.5q0 -190 -91.5 -351t-249 -254t-343.5 -93q-187 0 -344 94t-247.5 256t-90.5 356zM207 690q0 -163 75.5 -301t205.5 -217.5t284 -79.5q155 0 285.5 79t206 215.5t75.5 297.5 q0 160 -75.5 296t-206 215t-285.5 79q-151 0 -281.5 -79.5t-207 -214t-76.5 -290.5zM494 1577q0 32 25 57t59 25q35 0 59.5 -24.5t24.5 -59.5q0 -34 -25 -59t-59 -25q-35 0 -59.5 25.5t-24.5 60.5zM899 1577q0 32 25 57t59 25q35 0 59.5 -24.5t24.5 -59.5q0 -34 -25 -59 t-59 -25q-35 0 -59.5 25.5t-24.5 60.5z" />
<glyph unicode="&#xd7;" d="M156 403l293 293l-293 293l69 72l293 -293l295 293l70 -72l-293 -293l293 -293l-70 -69l-295 293l-293 -293z" />
<glyph unicode="&#xd8;" horiz-adv-x="1546" d="M90 684q0 141 54 270t145 222t217 148.5t264 55.5q124 0 238.5 -43t205.5 -123l146 146l74 -72l-148 -145q81 -92 125.5 -212.5t44.5 -248.5q0 -189 -92 -349.5t-250 -253.5t-344 -93q-253 0 -451 174l-145 -150l-68 76l144 150q-160 202 -160 448zM207 686 q0 -99 32.5 -197.5t92.5 -177.5l801 828q-156 135 -361 135q-153 0 -283 -79.5t-206 -215t-76 -293.5zM403 238q162 -146 367 -146q155 0 286 78.5t207 214.5t76 297q0 107 -35 207t-100 178z" />
<glyph unicode="&#xd9;" horiz-adv-x="1419" d="M164 616v750h110v-725q0 -144 15 -220t57 -142q54 -86 152 -136.5t211 -50.5q118 0 219 57t157 154q60 105 60 363v700h110v-784q0 -270 -133 -418q-76 -86 -182.5 -132t-228.5 -46q-139 0 -260.5 60.5t-192.5 164.5q-50 75 -72 170.5t-22 234.5zM463 1720h151l191 -260 h-98z" />
<glyph unicode="&#xda;" horiz-adv-x="1419" d="M164 616v750h110v-725q0 -144 15 -220t57 -142q54 -86 152 -136.5t211 -50.5q118 0 219 57t157 154q60 105 60 363v700h110v-784q0 -270 -133 -418q-76 -86 -182.5 -132t-228.5 -46q-139 0 -260.5 60.5t-192.5 164.5q-50 75 -72 170.5t-22 234.5zM647 1460l193 260h149 l-244 -260h-98z" />
<glyph unicode="&#xdb;" horiz-adv-x="1419" d="M164 616v750h110v-725q0 -144 15 -220t57 -142q54 -86 152 -136.5t211 -50.5q118 0 219 57t157 154q60 105 60 363v700h110v-784q0 -270 -133 -418q-76 -86 -182.5 -132t-228.5 -46q-139 0 -260.5 60.5t-192.5 164.5q-50 75 -72 170.5t-22 234.5zM430 1460l250 260h115 l247 -260h-94l-211 152l-211 -152h-96z" />
<glyph unicode="&#xdc;" horiz-adv-x="1419" d="M164 616v750h110v-725q0 -144 15 -220t57 -142q54 -86 152 -136.5t211 -50.5q118 0 219 57t157 154q60 105 60 363v700h110v-784q0 -270 -133 -418q-76 -86 -182.5 -132t-228.5 -46q-139 0 -260.5 60.5t-192.5 164.5q-50 75 -72 170.5t-22 234.5zM430 1577q0 32 25 57 t59 25q35 0 59.5 -24.5t24.5 -59.5q0 -34 -25 -59t-59 -25q-35 0 -59.5 25.5t-24.5 60.5zM836 1577q0 32 25 57t59 25q35 0 59.5 -24.5t24.5 -59.5q0 -34 -25 -59t-59 -25q-35 0 -59.5 25.5t-24.5 60.5z" />
<glyph unicode="&#xdd;" horiz-adv-x="1169" d="M16 1366h146l413 -530l429 530h149l-526 -627v-739h-111v739zM530 1460l193 260h149l-243 -260h-99z" />
<glyph unicode="&#xde;" horiz-adv-x="1026" d="M164 0v1366h110v-213h218q117 0 187.5 -13t117.5 -44q72 -47 115.5 -133t43.5 -179q0 -100 -50 -183.5t-136 -127.5q-87 -47 -268 -47h-228v-426h-110zM274 528h197q111 0 166.5 10.5t99.5 41.5q47 32 75 88t28 120q0 68 -30.5 127t-82.5 93q-65 43 -233 43h-220v-523z " />
<glyph unicode="&#xdf;" horiz-adv-x="980" d="M137 0v948q0 180 51 264q47 80 130.5 124t187.5 44q154 0 247 -93t93 -245q0 -209 -182 -286q109 -28 172 -123t63 -230q0 -186 -98 -299.5t-258 -113.5q-76 0 -148 30v111q79 -43 152 -43q106 0 176 85.5t70 217.5q0 148 -82 231t-228 83q-23 0 -57 -3v99l45 -2 q126 -6 197 59t71 182q0 107 -67 174.5t-174 67.5q-80 0 -142 -40t-90 -109q-26 -63 -26 -218v-915h-103z" />
<glyph unicode="&#xe0;" horiz-adv-x="847" d="M88 229q0 88 57.5 160t155.5 107q60 23 114 31t175 14v77q0 193 -178 193q-68 0 -132 -31.5t-139 -101.5v119q147 116 291 116q68 0 123.5 -27.5t87.5 -76.5q41 -61 41 -199v-471q0 -35 2.5 -43t11.5 -8q30 0 113 86v-96q-130 -90 -174 -90q-25 0 -39 22t-14 62q0 6 2 12 q-74 -52 -128 -73t-110 -21q-112 0 -186 68t-74 171zM176 1296h143l185 -278h-92zM195 233q0 -66 46 -105.5t121 -39.5q103 0 222 78v301q-152 -9 -222 -35q-76 -26 -121.5 -80t-45.5 -119z" />
<glyph unicode="&#xe1;" horiz-adv-x="847" d="M88 229q0 88 57.5 160t155.5 107q60 23 114 31t175 14v77q0 193 -178 193q-68 0 -132 -31.5t-139 -101.5v119q147 116 291 116q68 0 123.5 -27.5t87.5 -76.5q41 -61 41 -199v-471q0 -35 2.5 -43t11.5 -8q30 0 113 86v-96q-130 -90 -174 -90q-25 0 -39 22t-14 62q0 6 2 12 q-74 -52 -128 -73t-110 -21q-112 0 -186 68t-74 171zM195 233q0 -66 46 -105.5t121 -39.5q103 0 222 78v301q-152 -9 -222 -35q-76 -26 -121.5 -80t-45.5 -119zM381 1018l184 278h144l-236 -278h-92z" />
<glyph unicode="&#xe2;" horiz-adv-x="847" d="M88 229q0 88 57.5 160t155.5 107q60 23 114 31t175 14v77q0 193 -178 193q-68 0 -132 -31.5t-139 -101.5v119q147 116 291 116q68 0 123.5 -27.5t87.5 -76.5q41 -61 41 -199v-471q0 -35 2.5 -43t11.5 -8q30 0 113 86v-96q-130 -90 -174 -90q-25 0 -39 22t-14 62q0 6 2 12 q-74 -52 -128 -73t-110 -21q-112 0 -186 68t-74 171zM150 1018l231 278h108l232 -278h-88l-199 176l-196 -176h-88zM195 233q0 -66 46 -105.5t121 -39.5q103 0 222 78v301q-152 -9 -222 -35q-76 -26 -121.5 -80t-45.5 -119z" />
<glyph unicode="&#xe3;" horiz-adv-x="847" d="M88 229q0 88 57.5 160t155.5 107q60 23 114 31t175 14v77q0 193 -178 193q-68 0 -132 -31.5t-139 -101.5v119q147 116 291 116q68 0 123.5 -27.5t87.5 -76.5q41 -61 41 -199v-471q0 -35 2.5 -43t11.5 -8q30 0 113 86v-96q-130 -90 -174 -90q-25 0 -39 22t-14 62q0 6 2 12 q-74 -52 -128 -73t-110 -21q-112 0 -186 68t-74 171zM152 1047q15 101 49 146.5t94 45.5q29 0 57.5 -9t83.5 -36q69 -34 88.5 -41.5t38.5 -7.5q31 0 47.5 20t28.5 72h76q-12 -101 -50.5 -148t-109.5 -47q-29 0 -55 8.5t-78 36.5q-100 50 -127 50q-31 0 -44.5 -17.5 t-25.5 -72.5h-73zM195 233q0 -66 46 -105.5t121 -39.5q103 0 222 78v301q-152 -9 -222 -35q-76 -26 -121.5 -80t-45.5 -119z" />
<glyph unicode="&#xe4;" horiz-adv-x="847" d="M88 229q0 88 57.5 160t155.5 107q60 23 114 31t175 14v77q0 193 -178 193q-68 0 -132 -31.5t-139 -101.5v119q147 116 291 116q68 0 123.5 -27.5t87.5 -76.5q41 -61 41 -199v-471q0 -35 2.5 -43t11.5 -8q30 0 113 86v-96q-130 -90 -174 -90q-25 0 -39 22t-14 62q0 6 2 12 q-74 -52 -128 -73t-110 -21q-112 0 -186 68t-74 171zM174 1141q0 34 25 58t59 24t58 -24.5t24 -59.5q0 -34 -24 -58t-58 -24q-35 0 -59.5 24.5t-24.5 59.5zM195 233q0 -66 46 -105.5t121 -39.5q103 0 222 78v301q-152 -9 -222 -35q-76 -26 -121.5 -80t-45.5 -119zM508 1141 q0 34 25 58t59 24t58 -24.5t24 -59.5q0 -34 -24 -58t-58 -24q-35 0 -59.5 24.5t-24.5 59.5z" />
<glyph unicode="&#xe5;" horiz-adv-x="847" d="M88 229q0 88 57.5 160t155.5 107q60 23 114 31t175 14v77q0 193 -178 193q-68 0 -132 -31.5t-139 -101.5v119q147 116 291 116q68 0 123.5 -27.5t87.5 -76.5q41 -61 41 -199v-471q0 -35 2.5 -43t11.5 -8q30 0 113 86v-96q-130 -90 -174 -90q-25 0 -39 22t-14 62q0 6 2 12 q-74 -52 -128 -73t-110 -21q-112 0 -186 68t-74 171zM195 233q0 -66 46 -105.5t121 -39.5q103 0 222 78v301q-152 -9 -222 -35q-76 -26 -121.5 -80t-45.5 -119zM270 1165q0 64 46.5 110t111.5 46q64 0 110 -45.5t46 -110.5q0 -64 -46.5 -110.5t-109.5 -46.5q-66 0 -112 45.5 t-46 111.5zM348 1165q0 -34 23 -57t57 -23q32 0 55 23t23 57q0 32 -23 55t-55 23t-56 -23t-24 -55z" />
<glyph unicode="&#xe6;" horiz-adv-x="1275" d="M86 221q0 191 320 287l137 41v82q0 96 -37 141t-115 45q-112 0 -254 -133v121q91 60 153 84t126 24q148 0 205 -125q66 68 124.5 96.5t133.5 28.5q94 0 169.5 -48.5t112.5 -133.5q37 -84 37 -217v-27h-555v-30q0 -195 45 -267q28 -46 86.5 -74t124.5 -28q165 0 299 125 v-123q-167 -100 -303 -100q-147 0 -266 119q-155 -119 -295 -119q-107 0 -177.5 65.5t-70.5 165.5zM193 219q0 -57 49 -94t123 -37q85 0 178 59v312q-159 -42 -221 -76q-129 -67 -129 -164zM645 578h453q-4 109 -65 173t-159 64q-61 0 -113 -27.5t-81 -74.5t-35 -135z" />
<glyph unicode="&#xe7;" horiz-adv-x="780" d="M84 461q0 195 122.5 323.5t309.5 128.5q104 0 213 -49v-96q-121 47 -203 47q-146 0 -241 -100.5t-95 -257.5q0 -164 92 -266.5t240 -102.5q109 0 226 53v-102q-115 -52 -250 -49l-82 -113q44 12 71 12q56 0 89.5 -32t33.5 -84q0 -66 -54.5 -109t-137.5 -43q-78 0 -142 45 l33 55q41 -23 61 -29.5t50 -6.5q43 0 67.5 20t24.5 57q0 31 -18 47.5t-50 16.5q-26 0 -79 -23l-39 47l104 146q-154 26 -250 155t-96 310z" />
<glyph unicode="&#xe8;" horiz-adv-x="917" d="M84 463q0 195 113.5 322.5t285.5 127.5q161 0 261 -107.5t100 -279.5q0 -23 -2 -41h-649q0 -186 83.5 -291.5t229.5 -105.5q84 0 153.5 25.5t159.5 89.5v-107q-153 -106 -327 -106q-175 0 -291.5 135t-116.5 338zM207 573h532q-12 109 -81.5 175.5t-172.5 66.5t-181 -68 t-97 -174zM225 1296h144l184 -278h-92z" />
<glyph unicode="&#xe9;" horiz-adv-x="917" d="M84 463q0 195 113.5 322.5t285.5 127.5q161 0 261 -107.5t100 -279.5q0 -23 -2 -41h-649q0 -186 83.5 -291.5t229.5 -105.5q84 0 153.5 25.5t159.5 89.5v-107q-153 -106 -327 -106q-175 0 -291.5 135t-116.5 338zM207 573h532q-12 109 -81.5 175.5t-172.5 66.5t-181 -68 t-97 -174zM440 1018l185 278h143l-236 -278h-92z" />
<glyph unicode="&#xea;" horiz-adv-x="917" d="M84 463q0 195 113.5 322.5t285.5 127.5q161 0 261 -107.5t100 -279.5q0 -23 -2 -41h-649q0 -186 83.5 -291.5t229.5 -105.5q84 0 153.5 25.5t159.5 89.5v-107q-153 -106 -327 -106q-175 0 -291.5 135t-116.5 338zM207 573h532q-12 109 -81.5 175.5t-172.5 66.5t-181 -68 t-97 -174zM209 1018l231 278h109l231 -278h-88l-198 176l-197 -176h-88z" />
<glyph unicode="&#xeb;" horiz-adv-x="917" d="M84 463q0 195 113.5 322.5t285.5 127.5q161 0 261 -107.5t100 -279.5q0 -23 -2 -41h-649q0 -186 83.5 -291.5t229.5 -105.5q84 0 153.5 25.5t159.5 89.5v-107q-153 -106 -327 -106q-175 0 -291.5 135t-116.5 338zM207 573h532q-12 109 -81.5 175.5t-172.5 66.5t-181 -68 t-97 -174zM238 1141q0 34 25 58t59 24t57.5 -24.5t23.5 -59.5q0 -34 -23.5 -58t-57.5 -24q-35 0 -59.5 24.5t-24.5 59.5zM571 1141q0 34 25 58t59 24t58 -24.5t24 -59.5q0 -34 -24 -58t-58 -24q-35 0 -59.5 24.5t-24.5 59.5z" />
<glyph unicode="&#xec;" horiz-adv-x="374" d="M-68 1296h136l172 -278h-93zM135 0v899h103v-899h-103z" />
<glyph unicode="&#xed;" horiz-adv-x="374" d="M137 0v899h103v-899h-103zM143 1018l172 278h136l-215 -278h-93z" />
<glyph unicode="&#xee;" horiz-adv-x="374" d="M-43 1018l182 278h111l182 -278h-82l-155 178l-156 -178h-82zM137 0v899h103v-899h-103z" />
<glyph unicode="&#xef;" horiz-adv-x="374" d="M-12 1141q0 34 25 58t59 24t58 -24t24 -58q0 -35 -24 -59.5t-58 -24.5q-35 0 -59.5 24.5t-24.5 59.5zM137 0v899h103v-899h-103zM236 1141q0 34 24.5 58t58.5 24t58 -24.5t24 -59.5q0 -34 -24 -58t-58 -24q-35 0 -59 24.5t-24 59.5z" />
<glyph unicode="&#xf0;" horiz-adv-x="1034" d="M84 455q0 190 126 322t308 132q143 0 256 -88q-92 214 -264 348l-178 -112l-43 71l139 93q-23 16 -86 44t-111 42l37 79q92 -32 135 -51t111 -59l170 106l47 -73l-137 -84q79 -66 131 -125.5t94 -136.5q63 -114 98 -246t35 -254q0 -211 -135 -346q-127 -127 -299 -127 q-183 0 -308.5 134.5t-125.5 330.5zM190 457q0 -155 94.5 -262t231.5 -107t234.5 107t97.5 258q0 149 -97 253.5t-235 104.5q-135 0 -230.5 -103.5t-95.5 -250.5z" />
<glyph unicode="&#xf1;" horiz-adv-x="952" d="M137 0v899h103v-145q60 86 122.5 122.5t149.5 36.5q77 0 144 -36.5t108 -102.5q53 -79 53 -235v-539h-102v516q0 154 -53.5 226.5t-167.5 72.5q-157 0 -254 -166v-649h-103zM217 1047q15 101 49 146.5t94 45.5q49 0 142 -45q69 -34 88.5 -41.5t38.5 -7.5q31 0 47.5 20 t28.5 72h75q-12 -101 -50 -148t-109 -47q-29 0 -55.5 8.5t-78.5 36.5q-100 50 -127 50q-31 0 -44 -17t-25 -73h-74z" />
<glyph unicode="&#xf2;" horiz-adv-x="1036" d="M84 461q0 122 58.5 226t158.5 165t217 61q181 0 308.5 -135t127.5 -327q0 -126 -58.5 -232t-159.5 -167.5t-220 -61.5t-218.5 62t-156.5 170.5t-57 238.5zM190 459q0 -156 94.5 -263.5t231.5 -107.5q138 0 235 107t97 258q0 150 -97.5 256t-234.5 106q-135 0 -230.5 -104 t-95.5 -252zM252 1296h143l185 -278h-93z" />
<glyph unicode="&#xf3;" horiz-adv-x="1036" d="M84 461q0 122 58.5 226t158.5 165t217 61q181 0 308.5 -135t127.5 -327q0 -126 -58.5 -232t-159.5 -167.5t-220 -61.5t-218.5 62t-156.5 170.5t-57 238.5zM190 459q0 -156 94.5 -263.5t231.5 -107.5q138 0 235 107t97 258q0 150 -97.5 256t-234.5 106q-135 0 -230.5 -104 t-95.5 -252zM473 1018l184 278h144l-236 -278h-92z" />
<glyph unicode="&#xf4;" horiz-adv-x="1036" d="M84 461q0 122 58.5 226t158.5 165t217 61q181 0 308.5 -135t127.5 -327q0 -126 -58.5 -232t-159.5 -167.5t-220 -61.5t-218.5 62t-156.5 170.5t-57 238.5zM190 459q0 -156 94.5 -263.5t231.5 -107.5q138 0 235 107t97 258q0 150 -97.5 256t-234.5 106q-135 0 -230.5 -104 t-95.5 -252zM248 1018l231 278h109l231 -278h-88l-199 176l-196 -176h-88z" />
<glyph unicode="&#xf5;" horiz-adv-x="1036" d="M84 461q0 122 58.5 226t158.5 165t217 61q181 0 308.5 -135t127.5 -327q0 -126 -58.5 -232t-159.5 -167.5t-220 -61.5t-218.5 62t-156.5 170.5t-57 238.5zM190 459q0 -156 94.5 -263.5t231.5 -107.5q138 0 235 107t97 258q0 150 -97.5 256t-234.5 106q-135 0 -230.5 -104 t-95.5 -252zM276 1047q15 101 49.5 146.5t94.5 45.5q29 0 57.5 -9t83.5 -36q69 -34 88.5 -41.5t38.5 -7.5q31 0 47.5 20t28.5 72h76q-12 -101 -50.5 -148t-109.5 -47q-29 0 -55 8.5t-78 36.5q-100 50 -127 50q-31 0 -44.5 -17.5t-25.5 -72.5h-74z" />
<glyph unicode="&#xf6;" horiz-adv-x="1036" d="M84 461q0 122 58.5 226t158.5 165t217 61q181 0 308.5 -135t127.5 -327q0 -126 -58.5 -232t-159.5 -167.5t-220 -61.5t-218.5 62t-156.5 170.5t-57 238.5zM190 459q0 -156 94.5 -263.5t231.5 -107.5q138 0 235 107t97 258q0 150 -97.5 256t-234.5 106q-135 0 -230.5 -104 t-95.5 -252zM276 1141q0 34 25 58t59 24t58 -24.5t24 -59.5q0 -34 -24 -58t-58 -24q-35 0 -59.5 24.5t-24.5 59.5zM610 1141q0 34 25 58t59 24t58 -24.5t24 -59.5q0 -34 -24 -58t-58 -24q-35 0 -59.5 24.5t-24.5 59.5z" />
<glyph unicode="&#xf7;" d="M82 645v103h874v-103h-874zM446 354v183h144v-183h-144zM446 856v182h144v-182h-144z" />
<glyph unicode="&#xf8;" horiz-adv-x="1036" d="M55 39l119 129q-90 134 -90 287q0 189 126 321.5t306 132.5q151 0 270 -98l113 119l66 -60l-115 -122q104 -128 104 -297q0 -192 -128.5 -326.5t-311.5 -134.5q-79 0 -144.5 25.5t-133.5 82.5l-117 -123zM190 453q0 -111 60 -213l463 501q-91 70 -197 70 q-137 0 -231.5 -103.5t-94.5 -254.5zM307 170q94 -82 209 -82q137 0 234.5 106.5t97.5 256.5q0 121 -74 227z" />
<glyph unicode="&#xf9;" horiz-adv-x="948" d="M137 342v557h103v-522q0 -129 32 -191q23 -46 72 -72t111 -26q76 0 149 45t105 113v653h102v-899h-102v145q-105 -155 -265 -155q-79 0 -147.5 34.5t-108.5 94.5q-51 79 -51 223zM236 1296h143l184 -278h-92z" />
<glyph unicode="&#xfa;" horiz-adv-x="948" d="M137 342v557h103v-522q0 -129 32 -191q23 -46 72 -72t111 -26q76 0 149 45t105 113v653h102v-899h-102v145q-105 -155 -265 -155q-79 0 -147.5 34.5t-108.5 94.5q-51 79 -51 223zM420 1018l184 278h144l-236 -278h-92z" />
<glyph unicode="&#xfb;" horiz-adv-x="948" d="M137 342v557h103v-522q0 -129 32 -191q23 -46 72 -72t111 -26q76 0 149 45t105 113v653h102v-899h-102v145q-105 -155 -265 -155q-79 0 -147.5 34.5t-108.5 94.5q-51 79 -51 223zM203 1018l231 278h109l231 -278h-88l-199 176l-196 -176h-88z" />
<glyph unicode="&#xfc;" horiz-adv-x="948" d="M137 342v557h103v-522q0 -129 32 -191q23 -46 72 -72t111 -26q76 0 149 45t105 113v653h102v-899h-102v145q-105 -155 -265 -155q-79 0 -147.5 34.5t-108.5 94.5q-51 79 -51 223zM231 1141q0 34 25 58t59 24t58 -24.5t24 -59.5q0 -34 -24 -58t-58 -24q-35 0 -59.5 24.5 t-24.5 59.5zM565 1141q0 34 25 58t59 24t58 -24.5t24 -59.5q0 -34 -24 -58t-58 -24q-35 0 -59.5 24.5t-24.5 59.5z" />
<glyph unicode="&#xfd;" horiz-adv-x="890" d="M20 -492l369 701l-340 690h107l290 -592l316 592h108l-737 -1391h-113zM432 1018l184 278h144l-236 -278h-92z" />
<glyph unicode="&#xfe;" horiz-adv-x="974" d="M137 -492v1858h103v-516q56 33 101.5 46t104.5 13q192 0 319.5 -133t127.5 -334q0 -189 -127.5 -320.5t-310.5 -131.5q-57 0 -104.5 14t-110.5 49v-545h-103zM240 150q100 -62 202 -62q143 0 243.5 104.5t100.5 253.5q0 156 -102.5 260.5t-255.5 104.5q-94 0 -188 -47 v-614z" />
<glyph unicode="&#xff;" horiz-adv-x="890" d="M20 -492l369 701l-340 690h107l290 -592l316 592h108l-737 -1391h-113zM229 1141q0 34 25 58t59 24t58 -24.5t24 -59.5q0 -34 -24 -58t-58 -24q-35 0 -59.5 24.5t-24.5 59.5zM563 1141q0 34 25 58t59 24t58 -24.5t24 -59.5q0 -34 -24 -58t-58 -24q-35 0 -59.5 24.5 t-24.5 59.5z" />
<glyph unicode="&#x152;" horiz-adv-x="1738" d="M88 676q0 203 109 374t290 250q88 39 175.5 52.5t248.5 13.5h713v-102h-606v-523h592v-102h-592v-537h645v-102h-735q-250 0 -367 25q-133 27 -241.5 122t-170 235t-61.5 294zM205 678q0 -163 79.5 -304.5t211.5 -213.5q41 -23 80 -31.5t149 -19.5q89 -7 92 -7h90v1162 h-94q-122 0 -210.5 -26.5t-170.5 -86.5q-107 -82 -167 -207t-60 -266z" />
<glyph unicode="&#x153;" horiz-adv-x="1579" d="M76 451q0 197 122.5 329.5t305.5 132.5q158 0 268 -96q43 -38 92 -112q49 107 121 157.5t174 50.5q88 0 163.5 -43.5t121.5 -119.5q31 -51 43.5 -109.5t13.5 -159.5h-579l-2 -51q-6 -153 73.5 -247.5t208.5 -94.5q70 0 136 23t161 82v-101q-142 -102 -313 -102 q-107 0 -186 50.5t-136 156.5q-84 -117 -160 -162t-194 -45q-189 0 -311.5 130.5t-122.5 330.5zM182 455q0 -157 93 -262t231 -105q141 0 228 104t87 271q0 152 -90 252t-225 100q-140 0 -232 -102.5t-92 -257.5zM928 571h473q-15 114 -77.5 179t-156.5 65 q-59 0 -110.5 -28.5t-85.5 -79.5q-32 -49 -43 -136z" />
<glyph unicode="&#x178;" horiz-adv-x="1169" d="M16 1366h146l413 -530l429 530h149l-526 -627v-739h-111v739zM305 1577q0 32 25 57t59 25q35 0 59.5 -24.5t24.5 -59.5q0 -34 -25 -59t-59 -25q-35 0 -59.5 25.5t-24.5 60.5zM711 1577q0 32 25 57t59 25q35 0 59.5 -24.5t24.5 -59.5q0 -34 -25 -59t-59 -25 q-35 0 -59.5 25.5t-24.5 60.5z" />
<glyph unicode="&#x2c6;" horiz-adv-x="1024" d="M227 1018l232 278h108l232 -278h-88l-199 176l-197 -176h-88z" />
<glyph unicode="&#x2dc;" horiz-adv-x="1024" d="M231 1047q15 101 49.5 146.5t94.5 45.5q29 0 57.5 -9t83.5 -36q69 -34 88.5 -41.5t38.5 -7.5q31 0 47.5 20t28.5 72h76q-12 -101 -50.5 -148t-109.5 -47q-29 0 -55 8.5t-78 36.5q-100 50 -127 50q-31 0 -44.5 -17.5t-25.5 -72.5h-74z" />
<glyph unicode="&#x2000;" horiz-adv-x="877" />
<glyph unicode="&#x2001;" horiz-adv-x="1755" />
<glyph unicode="&#x2002;" horiz-adv-x="877" />
<glyph unicode="&#x2003;" horiz-adv-x="1755" />
<glyph unicode="&#x2004;" horiz-adv-x="585" />
<glyph unicode="&#x2005;" horiz-adv-x="438" />
<glyph unicode="&#x2006;" horiz-adv-x="292" />
<glyph unicode="&#x2007;" horiz-adv-x="292" />
<glyph unicode="&#x2008;" horiz-adv-x="219" />
<glyph unicode="&#x2009;" horiz-adv-x="351" />
<glyph unicode="&#x200a;" horiz-adv-x="97" />
<glyph unicode="&#x2010;" horiz-adv-x="399" d="M0 420v102h399v-102h-399z" />
<glyph unicode="&#x2011;" horiz-adv-x="399" d="M0 420v102h399v-102h-399z" />
<glyph unicode="&#x2012;" horiz-adv-x="399" d="M0 420v102h399v-102h-399z" />
<glyph unicode="&#x2013;" d="M82 420v102h876v-102h-876z" />
<glyph unicode="&#x2014;" horiz-adv-x="1198" d="M0 420v102h1198v-102h-1198z" />
<glyph unicode="&#x2018;" horiz-adv-x="403" d="M137 983v113q0 204 131 290v-96q-36 -44 -39 -119h39v-188h-131z" />
<glyph unicode="&#x2019;" horiz-adv-x="403" d="M137 963v96q36 44 39 119h-39v188h131v-113q0 -104 -31.5 -174t-99.5 -116z" />
<glyph unicode="&#x201a;" horiz-adv-x="403" d="M137 0v188h131v-112q0 -202 -131 -291v96q36 44 39 119h-39z" />
<glyph unicode="&#x201c;" horiz-adv-x="649" d="M137 983v113q0 204 131 290v-96q-36 -44 -39 -119h39v-188h-131zM383 983v113q0 204 131 290v-96q-36 -44 -39 -119h39v-188h-131z" />
<glyph unicode="&#x201d;" horiz-adv-x="649" d="M137 963v96q36 44 39 119h-39v188h131v-113q0 -104 -31.5 -174t-99.5 -116zM383 963v96q36 44 39 119h-39v188h131v-113q0 -104 -31.5 -174t-99.5 -116z" />
<glyph unicode="&#x201e;" horiz-adv-x="649" d="M137 0v188h131v-112q0 -202 -131 -291v96q36 44 39 119h-39zM383 0v188h131v-112q0 -202 -131 -291v96q36 44 39 119h-39z" />
<glyph unicode="&#x2022;" horiz-adv-x="1366" d="M401 692q0 120 83.5 202.5t203.5 82.5q115 0 198 -84t83 -201t-83 -199.5t-200 -82.5q-118 0 -201.5 82.5t-83.5 199.5z" />
<glyph unicode="&#x2026;" horiz-adv-x="1249" d="M137 0v209h144v-209h-144zM553 0v209h143v-209h-143zM971 0v209h143v-209h-143z" />
<glyph unicode="&#x202f;" horiz-adv-x="351" />
<glyph unicode="&#x2039;" horiz-adv-x="514" d="M109 471l180 344h114l-174 -344l174 -344h-114z" />
<glyph unicode="&#x203a;" horiz-adv-x="514" d="M109 127l174 344l-174 344h114l180 -344l-180 -344h-114z" />
<glyph unicode="&#x205f;" horiz-adv-x="438" />
<glyph unicode="&#x20ac;" horiz-adv-x="1439" d="M82 539l41 98h98q-2 8 -2 37q0 21 4 61h-141l41 99h117q54 245 246 395.5t450 150.5q206 0 424 -116v-2l-39 -99q-200 111 -387 111q-212 0 -363.5 -115.5t-212.5 -324.5h822l-41 -99h-799q-4 -27 -4 -65q0 -15 2 -33h758l-41 -98h-705q26 -116 101 -220 q166 -227 460 -227q216 0 412 113v-117q-205 -102 -410 -102q-265 0 -450.5 150.5t-231.5 402.5h-149z" />
<glyph unicode="&#x2122;" horiz-adv-x="1533" d="M2 1294v72h645v-72h-282v-706h-80v706h-283zM739 588v778h82l271 -340l280 340h74v-778h-80v653l-274 -336l-273 336v-653h-80z" />
<glyph unicode="&#x25fc;" horiz-adv-x="901" d="M0 0v901h901v-901h-901z" />
</font>
</defs>
</svg>
