<?xml version="1.0" standalone="no"?>
<!DOCTYPE svg PUBLIC "-//W3C//DTD SVG 1.1//EN" "http://www.w3.org/Graphics/SVG/1.1/DTD/svg11.dtd" >
<svg xmlns="http://www.w3.org/2000/svg" xmlns:xlink="http://www.w3.org/1999/xlink" version="1.1">
<metadata></metadata>
<defs>
<font id="chantillybold" horiz-adv-x="1079" >
<font-face units-per-em="2048" ascent="1536" descent="-512" />
<missing-glyph horiz-adv-x="512" />
<glyph unicode="&#xfb01;" horiz-adv-x="1071" d="M29 723v164h102v100q0 145 53 230q47 75 131.5 116t190.5 41q45 0 149 -14v-215q-54 12 -92 12q-75 0 -123.5 -41t-48.5 -104v-125h148v-164h-148v-723h-260v723h-102zM676 1217q0 61 45 106t106 45q63 0 107.5 -45t44.5 -109q0 -60 -45.5 -104.5t-106.5 -44.5t-106 45 t-45 107zM700 0v887h261v-887h-261z" />
<glyph unicode="&#xfb02;" horiz-adv-x="1071" d="M29 723v164h102v100q0 145 53 230q47 75 131.5 116t190.5 41q45 0 149 -14v-215q-54 12 -92 12q-75 0 -123.5 -41t-48.5 -104v-125h148v-164h-148v-723h-260v723h-102zM700 0v1366h261v-1366h-261z" />
<glyph unicode="&#xfb03;" horiz-adv-x="1634" d="M29 723v164h102v100q0 145 53 230q47 75 131.5 116t190.5 41q48 0 149 -14l2 -215q-56 12 -94 12q-74 0 -123 -41t-49 -104v-125h303v100q0 144 54 230q47 75 131 116t190 41q46 0 150 -14v-215q-54 12 -93 12q-75 0 -123.5 -41t-48.5 -104v-125h148v-164h-148v-723h-260 v723h-303v-723h-260v723h-102zM1241 1217q0 61 45 106t107 45q63 0 107 -45t44 -109q0 -60 -45 -104.5t-106 -44.5t-106.5 45.5t-45.5 106.5zM1264 0v887h260v-887h-260z" />
<glyph unicode="&#xfb04;" horiz-adv-x="1634" d="M29 723v164h102v100q0 145 53 230q47 75 131.5 116t190.5 41q48 0 149 -14l2 -215q-56 12 -94 12q-74 0 -123 -41t-49 -104v-125h303v100q0 144 54 230q47 75 131 116t190 41q46 0 150 -14v-215q-54 12 -93 12q-75 0 -123.5 -41t-48.5 -104v-125h148v-164h-148v-723h-260 v723h-303v-723h-260v723h-102zM1264 0v1366h260v-1366h-260z" />
<glyph horiz-adv-x="0" />
<glyph horiz-adv-x="682" />
<glyph unicode=" "  horiz-adv-x="512" />
<glyph unicode="&#x09;" horiz-adv-x="512" />
<glyph unicode="&#xa0;" horiz-adv-x="512" />
<glyph unicode="!" horiz-adv-x="626" d="M137 162q0 74 52.5 126t125.5 52q72 0 124.5 -52.5t52.5 -125.5t-52.5 -124.5t-126.5 -51.5q-72 0 -124 52t-52 124zM156 1186q0 89 44 144.5t115 55.5t114.5 -55.5t43.5 -146.5q0 -262 -117 -760h-86q-53 229 -83.5 434t-30.5 328z" />
<glyph unicode="&#x22;" horiz-adv-x="813" d="M109 1366h188l-37 -520h-115zM514 1366h188l-34 -520h-117z" />
<glyph unicode="#" horiz-adv-x="1245" d="M82 422l37 149h211l55 207h-211l41 152h211l61 227h164l-63 -227h205l63 227h164l-59 -227h202l-39 -152h-206l-56 -207h211l-43 -149h-209l-59 -229h-166l61 229h-202l-64 -229h-166l60 229h-203zM494 571h204l56 207h-205z" />
<glyph unicode="$" d="M51 156v264q104 -78 240 -125t258 -47q107 0 165 34.5t58 98.5q0 45 -26.5 74t-92.5 55q-17 7 -44 16t-81 28t-118 42q-124 44 -230 133q-119 101 -119 246q0 101 53.5 185t147.5 134q72 38 201 56v196h164v-196q224 -35 354 -121v-240q-215 129 -424 129 q-109 0 -167 -30t-58 -87q0 -70 82 -112q35 -19 71.5 -32.5t173.5 -61.5q108 -37 174.5 -75t110.5 -85q46 -51 72 -117t26 -133q0 -94 -52 -176t-142 -129q-80 -42 -221 -64v-196h-164v196q-249 46 -412 140z" />
<glyph unicode="%" horiz-adv-x="1554" d="M68 1020q0 168 65.5 260t185.5 92q122 0 188 -93.5t66 -266.5q0 -156 -67 -246t-184 -90q-119 0 -186.5 91.5t-67.5 252.5zM240 1018q0 -114 19 -163.5t63 -49.5q41 0 59 53t18 176q0 111 -18 160t-59 49q-43 0 -62.5 -52.5t-19.5 -172.5zM270 0l873 1366h139l-866 -1366 h-146zM979 338q0 167 66 259.5t186 92.5q122 0 188 -93.5t66 -266.5q0 -155 -67.5 -245.5t-184.5 -90.5q-119 0 -186.5 91.5t-67.5 252.5zM1151 336q0 -114 19 -163.5t63 -49.5q41 0 59.5 53t18.5 176q0 110 -18.5 159.5t-59.5 49.5q-43 0 -62.5 -52.5t-19.5 -172.5z" />
<glyph unicode="&#x26;" horiz-adv-x="1544" d="M109 334q0 109 67.5 197t222.5 178q-70 97 -99.5 168.5t-29.5 146.5q0 146 113.5 242t284.5 96q161 0 262.5 -87.5t101.5 -225.5q0 -151 -131 -267q-30 -26 -110 -88l194 -192q41 44 74 106q45 81 53 92h272q-35 -91 -101.5 -203t-119.5 -171l340 -326h-381l-143 139 q-38 -36 -115 -76q-89 -43 -161 -61t-160 -18q-188 0 -311 99t-123 251zM401 358q0 -65 54.5 -110t132.5 -45q112 0 225 98l-266 262q-83 -65 -114.5 -109t-31.5 -96zM524 1036q0 -43 29 -93.5t80 -92.5l12 6q21 12 57 39q46 39 65 71t19 74q0 54 -35 85.5t-96 31.5 q-62 0 -96.5 -32t-34.5 -89z" />
<glyph unicode="'" horiz-adv-x="405" d="M109 1366h188l-37 -520h-115z" />
<glyph unicode="(" horiz-adv-x="757" d="M96 453q0 249 113 488.5t317 424.5h179q-91 -101 -168 -244q-91 -170 -129.5 -324t-38.5 -345q0 -518 336 -918h-179q-430 415 -430 918z" />
<glyph unicode=")" horiz-adv-x="757" d="M55 -465q93 109 168 246q89 164 128.5 321.5t39.5 350.5t-38 345.5t-130 323.5q-73 138 -168 244h178q204 -185 317.5 -424.5t113.5 -488.5q0 -502 -431 -918h-178z" />
<glyph unicode="*" horiz-adv-x="854" d="M109 1071l55 168l180 -65l-6 192h178l-8 -192l182 65l55 -168l-186 -53l119 -154l-143 -104l-109 162l-107 -162l-145 104l121 154z" />
<glyph unicode="+" d="M27 594v219h403v381h219v-381h402v-219h-402v-383h-219v383h-403z" />
<glyph unicode="," horiz-adv-x="557" d="M102 176q0 68 48 116t116 48q83 0 137 -66.5t54 -167.5q0 -146 -105 -260.5t-243 -119.5v57q42 42 69 101t27 110q0 8 -2 26q-56 38 -78.5 73t-22.5 83z" />
<glyph unicode="-" horiz-adv-x="477" d="M0 336v256h477v-256h-477z" />
<glyph unicode="." horiz-adv-x="557" d="M102 162q0 73 52.5 125.5t126.5 52.5q72 0 124 -52.5t52 -125.5t-52 -124.5t-126 -51.5q-72 0 -124.5 52t-52.5 124z" />
<glyph unicode="/" horiz-adv-x="733" d="M0 -465l414 1831h211l-412 -1831h-213z" />
<glyph unicode="0" d="M76 674q0 327 104 497q131 209 359 209q132 0 231.5 -68t157.5 -200q34 -75 55 -200.5t21 -252.5q0 -313 -123.5 -493t-337.5 -180q-119 0 -214.5 59.5t-158.5 171.5q-94 163 -94 457zM377 670q0 -207 29 -320q15 -55 54 -90t85 -35q69 0 114 88q43 90 43 392 q0 230 -37 333t-120 103q-91 0 -129.5 -108t-38.5 -363z" />
<glyph unicode="1" d="M147 1071l406 295h229v-1366h-266v1079l-280 -215z" />
<glyph unicode="2" d="M61 0q63 63 176 204t197 259q100 141 145.5 247t45.5 195q0 95 -66 158t-164 63q-77 0 -149 -30t-156 -99v269q151 114 379 114q195 0 313.5 -114t118.5 -301q0 -312 -369 -693h469v-272h-940z" />
<glyph unicode="3" d="M156 55v226l16 -7q104 -38 154 -50.5t108 -12.5q89 0 144 49t55 127q0 83 -63 138t-158 55h-29v237q98 3 157.5 51t59.5 123q0 71 -53.5 118.5t-134.5 47.5q-97 0 -240 -70v228q53 30 132.5 47.5t162.5 17.5q189 0 306.5 -100.5t117.5 -263.5q0 -71 -27 -134.5 t-76 -107.5q-22 -22 -81 -59q106 -32 161.5 -110.5t55.5 -198.5q0 -192 -128 -306t-343 -114q-175 0 -297 69z" />
<glyph unicode="4" d="M82 313v213l582 840h206v-840h107v-213h-107v-313h-266v313h-522zM311 526h293v410z" />
<glyph unicode="5" d="M141 35v256q147 -80 277 -80q98 0 159.5 51.5t61.5 134.5q0 88 -69 147.5t-169 59.5q-101 0 -198 -33v795h669v-272h-419v-275q58 4 67 4q181 0 300.5 -118.5t119.5 -298.5q0 -188 -139 -306q-134 -114 -373 -114q-154 0 -287 49z" />
<glyph unicode="6" d="M94 449q0 119 43 239.5t148 296.5l225 381h301l-307 -520q51 20 102 20q161 0 269 -119.5t108 -297.5q0 -197 -127.5 -330t-316.5 -133q-186 0 -315.5 134.5t-129.5 328.5zM377 436q0 -95 46.5 -155t121.5 -60q78 0 128 59.5t50 151.5q0 98 -48.5 159.5t-125.5 61.5 q-76 0 -124 -60.5t-48 -156.5z" />
<glyph unicode="7" d="M82 1094v272h915l-565 -1452l-254 92l424 1088h-520z" />
<glyph unicode="8" d="M90 373q0 80 35.5 155t99.5 129q35 27 86 58q-100 64 -146 139t-46 172q0 155 117.5 254.5t300.5 99.5q187 0 307.5 -104t120.5 -264q0 -101 -43.5 -170t-147.5 -135q215 -125 215 -340q0 -166 -128 -273.5t-326 -107.5q-192 0 -318.5 110t-126.5 277zM383 391 q0 -96 42.5 -155.5t111.5 -59.5t114 57.5t45 145.5q0 98 -45 161.5t-114 63.5q-68 0 -111 -59.5t-43 -153.5zM393 989q0 -85 41 -136.5t107 -51.5t107.5 53.5t41.5 138.5q0 89 -40.5 143t-108.5 54q-69 0 -108.5 -53.5t-39.5 -147.5z" />
<glyph unicode="9" d="M94 918q0 196 128 329t317 133q186 0 315 -135t129 -330q0 -118 -43.5 -240t-146.5 -296l-226 -379h-301l307 520q-49 -20 -102 -20q-161 0 -269 119.5t-108 298.5zM354 934q0 -98 48.5 -159.5t125.5 -61.5q75 0 123.5 61t48.5 156t-47 155t-121 60q-78 0 -128 -59.5 t-50 -151.5z" />
<glyph unicode=":" horiz-adv-x="557" d="M102 162q0 73 52.5 125.5t126.5 52.5q72 0 124 -52.5t52 -125.5t-52 -124.5t-126 -51.5q-72 0 -124.5 52t-52.5 124zM102 723q0 73 52.5 125.5t126.5 52.5q72 0 124 -52.5t52 -125.5t-52 -124.5t-126 -51.5q-72 0 -124.5 52t-52.5 124z" />
<glyph unicode=";" horiz-adv-x="557" d="M102 176q0 68 48 116t116 48q83 0 137 -66.5t54 -167.5q0 -146 -105 -260.5t-243 -119.5v57q42 42 69 101t27 110q0 8 -2 26q-56 38 -78.5 73t-22.5 83zM102 723q0 73 52.5 125.5t126.5 52.5q72 0 124 -52.5t52 -125.5t-52 -124.5t-126 -51.5q-72 0 -124.5 52t-52.5 124z " />
<glyph unicode="&#x3c;" horiz-adv-x="1024" d="M68 588v217l886 450v-256l-612 -303l612 -303v-256z" />
<glyph unicode="=" d="M27 416v211h1024v-211h-1024zM27 778v211h1024v-211h-1024z" />
<glyph unicode="&#x3e;" horiz-adv-x="1024" d="M68 135v258l612 303l-612 303v256l886 -450v-219z" />
<glyph unicode="?" horiz-adv-x="782" d="M109 1096l61 262q69 28 160 28q161 0 251.5 -80t90.5 -221q0 -104 -68 -217q-11 -21 -104 -149q-101 -137 -101 -225q0 -23 11 -66h-93q-73 118 -73 234q0 59 15 100.5t79 157.5q43 76 43 137q0 51 -34.5 82.5t-90.5 31.5q-38 0 -64.5 -13.5t-82.5 -61.5zM186 162 q0 73 52.5 125.5t126.5 52.5q72 0 124 -52.5t52 -125.5t-52.5 -124.5t-126.5 -51.5q-72 0 -124 52t-52 124z" />
<glyph unicode="@" horiz-adv-x="1449" d="M68 651q0 142 43.5 273t121.5 225q90 108 231 172.5t286 64.5q127 0 244 -46.5t202 -124.5t135.5 -185.5t50.5 -224.5t-50.5 -214t-145.5 -165q-60 -43 -126.5 -67.5t-121.5 -24.5q-95 0 -174 57q-50 -47 -152 -47q-115 0 -178 61.5t-63 172.5q0 86 40.5 172.5 t114.5 158.5q138 135 322 135q98 0 229 -28l-168 -510q-6 -17 -6 -25q0 -16 25 -16q120 0 207.5 99t87.5 233q0 119 -62 219t-170.5 157.5t-238.5 57.5q-227 0 -373 -162t-146 -414q0 -246 162 -399q135 -123 342 -123q152 0 281.5 60.5t206.5 166.5h157q-69 -167 -252 -275 t-397 -108q-296 0 -480.5 187.5t-184.5 486.5zM547 602q0 -34 23 -55t61 -21q64 0 143 45l94 295q-95 -3 -149.5 -23.5t-97.5 -70.5q-30 -36 -52 -86.5t-22 -83.5z" />
<glyph unicode="A" horiz-adv-x="1466" d="M6 0l524 1366h347l581 -1366h-332l-114 279h-594l-105 -279h-307zM496 492h428l-230 548z" />
<glyph unicode="B" horiz-adv-x="1275" d="M137 0v1366h451q211 0 327 -61q80 -40 130.5 -121t50.5 -170q0 -85 -42.5 -153.5t-119.5 -108.5q133 -41 202.5 -133t69.5 -226q0 -123 -62.5 -217.5t-174.5 -138.5q-57 -23 -102 -30t-136 -7h-594zM446 219h220q108 0 166.5 48.5t58.5 138.5q0 92 -59.5 137t-182.5 45 h-203v-369zM446 805h132q95 0 152.5 48t57.5 126q0 79 -58.5 123.5t-162.5 44.5h-121v-342z" />
<glyph unicode="C" horiz-adv-x="1343" d="M70 674q0 150 65.5 293.5t177.5 240.5q205 178 529 178q222 0 393 -98v-266q-186 100 -369 100q-204 0 -336.5 -126t-132.5 -320q0 -187 132 -309.5t333 -122.5q225 0 430 151v-291q-85 -56 -214 -90t-255 -34q-160 0 -299.5 52.5t-239 144.5t-157 221t-57.5 276z" />
<glyph unicode="D" horiz-adv-x="1427" d="M137 0v1366h496q136 0 244.5 -34.5t207.5 -108.5q125 -94 199 -244t74 -311q0 -166 -74 -310.5t-203 -230.5q-102 -69 -203 -98t-235 -29h-506zM446 242h119q215 0 340 118.5t125 323.5q0 196 -123 318t-321 122h-140v-882z" />
<glyph unicode="E" horiz-adv-x="1067" d="M137 0v1366h852v-242h-543v-297h521v-241h-521v-344h555v-242h-864z" />
<glyph unicode="F" horiz-adv-x="993" d="M137 0v1366h805v-242h-496v-315h480v-242h-480v-567h-309z" />
<glyph unicode="G" horiz-adv-x="1425" d="M72 680q0 206 98 367.5t274.5 251.5t401.5 90q233 0 430 -93v-272q-120 53 -213 75.5t-191 22.5q-209 0 -341 -120.5t-132 -311.5q0 -129 59.5 -229.5t168.5 -159.5q60 -31 123 -44t153 -13q55 0 98 2v219h-141v235h451v-673q-63 -20 -183 -33.5t-237 -13.5 q-211 0 -358 47.5t-254 150.5q-98 92 -152.5 224.5t-54.5 277.5z" />
<glyph unicode="H" horiz-adv-x="1544" d="M137 0v1366h309v-553h652v553h309v-1366h-309v586h-652v-586h-309z" />
<glyph unicode="I" horiz-adv-x="583" d="M137 0v1366h309v-1366h-309z" />
<glyph unicode="J" horiz-adv-x="614" d="M-82 -186q50 -9 74 -9q95 0 135.5 52t40.5 174v1335h309v-1352q0 -230 -107.5 -353.5t-308.5 -123.5q-74 0 -135 19z" />
<glyph unicode="K" horiz-adv-x="1372" d="M137 0v1366h309v-618l523 618h374l-573 -664l594 -702h-395l-523 649v-649h-309z" />
<glyph unicode="L" horiz-adv-x="1101" d="M137 0v1366h309v-1124h635v-242h-944z" />
<glyph unicode="M" horiz-adv-x="1660" d="M137 0v1366h271l423 -532l426 532h267v-1366h-310v848l-358 -453h-49l-361 453v-848h-309z" />
<glyph unicode="N" horiz-adv-x="1579" d="M137 0v1366h285l713 -854v854h309v-1366h-279l-719 860v-860h-309z" />
<glyph unicode="O" horiz-adv-x="1579" d="M72 684q0 147 55 277.5t150.5 223.5t229 147t284.5 54q206 0 370 -91t256 -254t92 -367q0 -145 -55 -274t-149.5 -221t-227.5 -145.5t-284 -53.5q-152 0 -286 53.5t-229.5 147t-150.5 224t-55 279.5zM399 680q0 -190 110 -313t279 -123t281.5 124t112.5 310 q0 170 -97 297q-112 147 -294 147q-171 0 -281.5 -124.5t-110.5 -317.5z" />
<glyph unicode="P" horiz-adv-x="1148" d="M137 0v1366h527q81 0 156.5 -22.5t125.5 -61.5q74 -57 118 -149t44 -189q0 -175 -125.5 -285t-323.5 -110h-213v-549h-309zM446 791h132q98 0 150 42.5t52 124.5q0 166 -202 166h-132v-333z" />
<glyph unicode="Q" horiz-adv-x="1576" d="M72 696q0 192 93.5 350t258 249t364.5 91q151 0 284.5 -53.5t228 -145.5t149.5 -222t55 -277q0 -210 -105 -374.5t-302 -262.5q141 -54 204.5 -70t137.5 -16q40 0 69 10l29 -32l-260 -222q-608 184 -858 367q-165 98 -256.5 258t-91.5 350zM399 678q0 -186 111 -310 t278 -124q166 0 278 123t112 307q0 195 -111.5 321.5t-282.5 126.5q-88 0 -154.5 -32t-123.5 -101q-107 -135 -107 -311z" />
<glyph unicode="R" horiz-adv-x="1277" d="M137 0v1366h488q194 0 309 -80q80 -57 123 -140t43 -181q0 -134 -72 -222q-24 -30 -55 -52.5t-90 -53.5q73 -52 131.5 -143t136.5 -275q69 -167 115 -219h-365l-162 346q-52 112 -115 162.5t-151 50.5h-27v-559h-309zM446 795h138q89 0 138.5 44t49.5 122q0 80 -48 121.5 t-140 41.5h-138v-329z" />
<glyph unicode="S" horiz-adv-x="987" d="M82 975q0 182 131.5 296.5t339.5 114.5q79 0 146 -15.5t169 -57.5v-285q-138 100 -280 100q-85 0 -136 -38.5t-51 -104.5q0 -60 40.5 -101t162.5 -104q165 -88 237 -180.5t72 -218.5q0 -175 -137.5 -288t-351.5 -113q-161 0 -338 73v303q180 -120 315 -120q83 0 138 42.5 t55 106.5q0 55 -40.5 94t-166.5 105q-117 62 -168 106q-137 117 -137 285z" />
<glyph unicode="T" horiz-adv-x="1249" d="M6 1124v242h1235v-242h-463v-1124h-309v1124h-463z" />
<glyph unicode="U" horiz-adv-x="1558" d="M137 543v823h309v-778q0 -106 37 -176q41 -78 122 -123t179 -45q151 0 240.5 95t89.5 253v774h309v-823q0 -269 -166.5 -416t-470.5 -147q-201 0 -336 56.5t-217 174.5q-96 143 -96 332z" />
<glyph unicode="V" horiz-adv-x="1372" d="M6 1366h336l356 -786l324 786h342l-576 -1366h-141z" />
<glyph unicode="W" horiz-adv-x="2246" d="M6 1366h324l321 -766l320 766h295l323 -766l318 766h331l-571 -1366h-143l-404 936l-387 -936h-143z" />
<glyph unicode="X" horiz-adv-x="1544" d="M-6 0l575 715l-520 651h408l309 -399l311 399h396l-515 -643l592 -723h-409l-375 467l-358 -467h-414z" />
<glyph unicode="Y" horiz-adv-x="1314" d="M0 1366h362l293 -428l297 428h365l-506 -723v-643h-311v643z" />
<glyph unicode="Z" horiz-adv-x="1325" d="M39 0l739 1124h-684v242h1192l-723 -1124h723v-242h-1247z" />
<glyph unicode="[" horiz-adv-x="729" d="M164 -465v1831h510v-186h-262v-1456h276v-189h-524z" />
<glyph unicode="\" horiz-adv-x="733" d="M109 1366h210l414 -1831h-213z" />
<glyph unicode="]" horiz-adv-x="729" d="M41 1178v188h524v-1831h-510v186h262v1457h-276z" />
<glyph unicode="^" horiz-adv-x="1024" d="M12 688l330 686h340l332 -686h-273l-229 479l-229 -479h-271z" />
<glyph unicode="_" horiz-adv-x="1024" d="M0 -96h1024v-232h-1024v232z" />
<glyph unicode="`" horiz-adv-x="1024" d="M217 1305h254l156 -287h-156z" />
<glyph unicode="a" horiz-adv-x="970" d="M63 207q0 200 312 291q24 7 51 15.5t41.5 12.5t19.5 6q40 13 74 33q0 75 -18 107q-15 26 -50.5 42.5t-78.5 16.5q-76 0 -152 -35.5t-121 -93.5v221q143 78 312 78q170 0 269 -74.5t99 -203.5v-316q0 -66 8 -88t33 -22q35 0 84 39v-156l-86 -47q-86 -47 -162 -47 q-91 0 -135 86q-128 -86 -237 -86q-117 0 -190 61.5t-73 159.5zM334 250q0 -38 25 -66t59 -28q66 0 143 80v180q-100 -17 -163.5 -63t-63.5 -103z" />
<glyph unicode="b" horiz-adv-x="1095" d="M111 0v1366h260v-512q92 47 209 47q177 0 311 -121q139 -127 139 -336q0 -189 -106 -313q-60 -68 -145.5 -106.5t-174.5 -38.5q-58 0 -99 14t-134 66v-66h-260zM371 231q35 -31 85 -50t93 -19q88 0 151.5 85t63.5 202q0 121 -64 199.5t-161 78.5q-71 0 -168 -47v-449z " />
<glyph unicode="c" horiz-adv-x="870" d="M68 436q0 212 140.5 338.5t375.5 126.5q122 0 231 -43v-203q-93 52 -207 52q-117 0 -190.5 -74t-73.5 -191q0 -116 74 -189t192 -73q88 0 211 60v-203q-117 -51 -264 -51q-217 0 -353 125.5t-136 324.5z" />
<glyph unicode="d" horiz-adv-x="1095" d="M66 444q0 209 139 336q62 57 143.5 89t167.5 32q117 0 209 -47v512h260v-1366h-260v66q-96 -53 -135.5 -66.5t-97.5 -13.5q-89 0 -174.5 38.5t-145.5 106.5q-106 124 -106 313zM332 449q0 -120 65 -203.5t160 -83.5q84 0 168 69v449q-97 47 -166 47q-98 0 -162.5 -78.5 t-64.5 -199.5z" />
<glyph unicode="e" horiz-adv-x="978" d="M68 453q0 196 120 322t306 126q157 0 258.5 -75.5t142.5 -223.5q21 -78 23 -199h-584q-1 -104 72.5 -171.5t189.5 -67.5q74 0 157.5 30t145.5 80v-163q-60 -55 -159 -90t-195 -35q-209 0 -343 131.5t-134 335.5zM336 541h350q-9 82 -58.5 135t-117.5 53q-146 0 -174 -188 z" />
<glyph unicode="f" horiz-adv-x="563" d="M29 723v164h102v100q0 145 53 230q47 75 131.5 116t190.5 41q45 0 149 -14v-215q-54 12 -92 12q-75 0 -123.5 -41t-48.5 -104v-125h148v-164h-148v-723h-260v723h-102z" />
<glyph unicode="g" horiz-adv-x="948" d="M41 -211q0 77 46 128t144 83q-79 51 -79 119q0 107 161 151q-223 85 -223 289q0 110 66 192.5t180 114.5q72 21 178 21h418v-178h-127q33 -55 45 -92t12 -85q0 -152 -151 -241q-76 -45 -228 -68q-92 -15 -92 -59q0 -31 39 -45q14 -6 34 -10t109 -15q163 -23 247.5 -91 t84.5 -177q0 -68 -41 -132.5t-108 -101.5q-121 -65 -305 -65q-183 0 -296.5 72.5t-113.5 189.5zM266 -203q0 -46 54.5 -73t148.5 -27q92 0 146.5 26t54.5 70t-50 69t-141 25q-213 0 -213 -90zM336 559q0 -68 40 -112t103 -44q60 0 99.5 44.5t39.5 109.5q0 68 -41 114 t-102 46t-100 -44.5t-39 -113.5z" />
<glyph unicode="h" horiz-adv-x="1064" d="M111 0v1366h260v-614q131 149 282 149q82 0 147 -37t105 -106q22 -37 35.5 -87t13.5 -91v-580h-260v502q0 78 -2.5 97t-15.5 46q-15 33 -46 53.5t-67 20.5q-46 0 -87.5 -23.5t-104.5 -85.5v-610h-260z" />
<glyph unicode="i" horiz-adv-x="481" d="M86 1217q0 61 45 106t107 45q63 0 107 -45t44 -109q0 -60 -45 -104.5t-106 -44.5q-62 0 -107 45.5t-45 106.5zM111 0v887h260v-887h-260z" />
<glyph unicode="j" horiz-adv-x="487" d="M-33 -227q85 28 117.5 77t32.5 150v887h260v-887q0 -119 -15 -192.5t-49 -124.5q-44 -66 -114.5 -110t-149.5 -54zM96 1217q0 61 45 106t107 45q63 0 107 -45t44 -109q0 -60 -45 -104.5t-106 -44.5q-62 0 -107 45.5t-45 106.5z" />
<glyph unicode="k" horiz-adv-x="1056" d="M111 0v1366h260v-887l344 408h315l-358 -408l375 -479h-316l-360 457v-457h-260z" />
<glyph unicode="l" horiz-adv-x="481" d="M111 0v1366h260v-1366h-260z" />
<glyph unicode="m" horiz-adv-x="1648" d="M111 0v887h260v-135q131 149 282 149q193 0 267 -188q67 101 137.5 144.5t167.5 43.5q146 0 229.5 -93.5t83.5 -256.5v-551h-260v494q0 114 -27 159q-41 66 -112 66q-49 0 -89.5 -24t-95.5 -85v-610h-260v502q0 78 -2.5 97t-15.5 46q-15 33 -46 53.5t-67 20.5 q-46 0 -87.5 -23.5t-104.5 -85.5v-610h-260z" />
<glyph unicode="n" horiz-adv-x="1064" d="M111 0v887h260v-135q131 149 282 149q82 0 147 -37t105 -106q22 -37 35.5 -87t13.5 -91v-580h-260v502q0 78 -2.5 97t-15.5 46q-15 33 -46 53.5t-67 20.5q-46 0 -87.5 -23.5t-104.5 -85.5v-610h-260z" />
<glyph unicode="o" horiz-adv-x="1101" d="M68 444q0 127 60.5 234t164.5 166q105 57 256 57q178 0 291 -76q92 -61 143 -162t51 -219q0 -98 -35.5 -185t-101.5 -150q-129 -123 -346 -123t-346 123q-66 63 -101.5 150t-35.5 185zM346 446q0 -124 57 -198t152 -74t148 70t53 196q0 129 -55 201t-152 72 q-94 0 -148.5 -72t-54.5 -195z" />
<glyph unicode="p" horiz-adv-x="1095" d="M111 -465v1352h260v-66q93 52 133.5 66t99.5 14q89 0 174.5 -38.5t145.5 -106.5q106 -121 106 -314q0 -209 -139 -336q-61 -57 -143.5 -88.5t-167.5 -31.5q-117 0 -209 47v-498h-260zM371 207q97 -47 166 -47q98 0 162.5 78.5t64.5 199.5q0 123 -65 206t-160 83 q-94 0 -168 -59v-461z" />
<glyph unicode="q" horiz-adv-x="1095" d="M66 442q0 190 106 314q59 66 143 105.5t168 39.5q59 0 109 -16.5t133 -63.5v66h260v-1352h-260v498q-92 -47 -209 -47q-85 0 -167.5 31.5t-143.5 88.5q-139 127 -139 336zM332 438q0 -121 64.5 -199.5t162.5 -78.5q63 0 166 47v461q-72 57 -168 57q-95 0 -160 -83 t-65 -204z" />
<glyph unicode="r" horiz-adv-x="798" d="M111 0v887h260v-209q86 130 139.5 176.5t118.5 46.5q42 0 81 -13t95 -46l-94 -258q-95 59 -150 59q-49 0 -95 -39.5t-69 -101.5q-17 -45 -21.5 -80t-4.5 -113v-309h-260z" />
<glyph unicode="s" horiz-adv-x="759" d="M70 645q0 107 93 181.5t228 74.5q54 0 129 -17.5t135 -43.5v-193q-115 80 -225 80q-43 0 -70.5 -20.5t-27.5 -51.5q0 -30 28 -55.5t95 -56.5q69 -31 97 -47t56 -41q43 -38 67.5 -92t24.5 -109q0 -118 -95 -193t-245 -75q-70 0 -151 22t-135 55v197q116 -94 254 -94 q45 0 73.5 20t28.5 52q0 33 -21 52t-108 64q-107 56 -145 92q-39 34 -62.5 88.5t-23.5 110.5z" />
<glyph unicode="t" horiz-adv-x="714" d="M33 723v131l383 348v-315h289v-164h-289v-395q0 -66 35.5 -106t95.5 -40q66 0 158 58v-207q-109 -47 -222 -47q-91 0 -168.5 36.5t-115.5 96.5q-25 38 -34 82.5t-9 126.5v395h-123z" />
<glyph unicode="u" horiz-adv-x="1064" d="M111 307v580h260v-502q0 -77 2.5 -96.5t15.5 -46.5q15 -33 46 -53.5t67 -20.5q46 0 87.5 23.5t104.5 84.5v611h260v-887h-260v135q-131 -149 -282 -149q-82 0 -147 37t-105 106q-22 37 -35.5 87t-13.5 91z" />
<glyph unicode="v" horiz-adv-x="913" d="M-2 887h287l178 -432l180 432h275l-400 -887h-119z" />
<glyph unicode="w" horiz-adv-x="1454" d="M-2 887h281l178 -445l184 445h174l186 -445l179 445h278l-397 -887h-123l-209 477l-207 -477h-129z" />
<glyph unicode="x" horiz-adv-x="1001" d="M4 0l342 461l-328 426h310l168 -228l163 228h320l-328 -426l346 -461h-307l-194 260l-183 -260h-309z" />
<glyph unicode="y" horiz-adv-x="913" d="M-2 887h276l189 -441l174 441h281l-596 -1352h-271l283 625z" />
<glyph unicode="z" horiz-adv-x="937" d="M45 0l438 713h-397v174h807l-447 -705h447v-182h-848z" />
<glyph unicode="{" horiz-adv-x="628" d="M47 401v127q63 15 90 53.5t27 110.5v426q0 141 68 202.5t225 61.5h108v-172q-92 -1 -123.5 -22.5t-31.5 -83.5v-418q0 -92 -21 -140.5t-74 -80.5q53 -34 74 -84.5t21 -142.5v-404q0 -66 31 -89t124 -24v-172h-112q-158 0 -223.5 65t-65.5 222v402q0 74 -26.5 111 t-90.5 52z" />
<glyph unicode="|" horiz-adv-x="1024" d="M383 -342v1708h260v-1708h-260z" />
<glyph unicode="}" horiz-adv-x="628" d="M61 -279q92 1 124 23t32 82v420q0 90 20.5 138.5t73.5 82.5q-53 34 -73.5 83.5t-20.5 141.5v406q0 66 -31 88t-125 24v172h113q158 0 223.5 -65t65.5 -223v-400q0 -74 26.5 -111.5t90.5 -52.5v-129q-63 -13 -90 -51t-27 -110v-426q0 -167 -101 -226q-43 -27 -129 -37 q-20 -2 -172 -2v172z" />
<glyph unicode="~" horiz-adv-x="1366" d="M184 1243q3 9 9.5 21t7.5 14q36 85 62.5 124.5t66.5 70.5q68 53 164 53q74 0 213 -53q89 -34 118.5 -42t61.5 -8q47 0 78.5 23t66.5 84l148 -86q-44 -93 -75 -137.5t-73 -75.5q-82 -57 -176 -57q-50 0 -207 55q-87 31 -115.5 39t-54.5 8q-52 0 -82 -25.5t-69 -101.5z" />
<glyph unicode="&#xa1;" horiz-adv-x="626" d="M137 725q0 73 52 124.5t126 51.5q72 0 124.5 -52t52.5 -124q0 -73 -52.5 -125.5t-124.5 -52.5q-73 0 -125.5 52.5t-52.5 125.5zM156 -297q0 121 30.5 326t83.5 434h86q117 -495 117 -762q0 -89 -44.5 -145t-115.5 -56q-70 0 -113.5 56t-43.5 147z" />
<glyph unicode="&#xa2;" d="M160 657q0 187 121 315.5t315 145.5v133h156v-135q24 -3 75.5 -16.5t75.5 -22.5v-207q-43 25 -99.5 40.5t-103.5 15.5q-120 0 -194 -74t-74 -193q0 -117 73 -192.5t187 -75.5q54 0 103 14.5t120 51.5v-203q-40 -20 -59 -26t-94 -21l-10 -2v-144h-156v140 q-198 20 -317 144.5t-119 311.5z" />
<glyph unicode="&#xa3;" d="M43 -6l158 637h-131v166h180q86 299 214.5 441t313.5 142q54 0 131 -18l113 -275q-77 33 -156 33q-134 0 -211 -72.5t-129 -250.5h193v-166h-236l-94 -336q59 6 90 6q46 0 72 -4t133 -27q39 -8 94 -8q118 0 228 43v-276q-64 -43 -224 -43q-65 0 -168 22q-129 27 -233 27 q-79 0 -140 -7t-167 -30q-2 0 -6 -0.5t-11.5 -1.5t-13.5 -2z" />
<glyph unicode="&#xa4;" horiz-adv-x="1318" d="M76 1157l123 123l192 -190q79 55 137 75.5t131 20.5t130.5 -20.5t136.5 -75.5l192 188l123 -121l-190 -188q96 -130 96 -271q0 -71 -20 -129t-72 -135l188 -188l-121 -123l-190 188q-128 -94 -264 -94q-132 0 -277 94l-188 -188l-123 123l186 188q-92 127 -92 268 q0 69 21 128t73 137zM344 702q0 -132 93.5 -225.5t224.5 -93.5t224 93.5t93 225.5t-92.5 227t-220.5 95q-135 0 -228.5 -93.5t-93.5 -228.5z" />
<glyph unicode="&#xa5;" d="M74 1366h239l224 -565l231 565h240l-205 -498h201v-163h-269l-47 -113h260v-164h-278v-428h-267v428h-270v164h252l-45 113h-262v163h196z" />
<glyph unicode="&#xa6;" horiz-adv-x="1024" d="M383 313h260v-655h-260v655zM383 657v709h260v-709h-260z" />
<glyph unicode="&#xa7;" horiz-adv-x="1075" d="M137 492q0 78 39.5 142t138.5 148q-86 104 -113.5 158t-27.5 119q0 131 109.5 229t255.5 98q98 0 184.5 -46.5t126.5 -120.5q22 -39 30.5 -84.5t8.5 -126.5h-244q0 84 -14 122q-28 58 -96 58q-49 0 -79 -29t-30 -76q0 -53 43 -102q6 -8 9.5 -12.5t12 -13.5t16.5 -16.5 t30 -29.5l45 -45l245 -243q113 -110 113 -232q0 -79 -43 -146t-145 -145q135 -132 135 -266q0 -140 -104.5 -236t-256.5 -96q-114 0 -205 56t-128 147q-23 59 -23 145v35h240v-35v-18q0 -57 32 -91t86 -34q47 0 79 30.5t32 74.5q0 47 -43 96q-29 35 -123 127l-176 174 q-93 92 -126.5 151.5t-33.5 133.5zM369 508q0 -40 32 -72l205 -198q94 73 94 137q0 19 -12 36t-49 54l-37 37l-143 143q-51 -47 -70.5 -77t-19.5 -60z" />
<glyph unicode="&#xa8;" horiz-adv-x="1024" d="M201 1153q0 54 39.5 93.5t93.5 39.5q57 0 96 -39.5t39 -95.5q0 -54 -39.5 -93.5t-93.5 -39.5q-56 0 -95.5 40t-39.5 95zM555 1153q0 54 39.5 93.5t93.5 39.5q57 0 96 -39.5t39 -95.5q0 -54 -39.5 -93.5t-93.5 -39.5q-56 0 -95.5 40t-39.5 95z" />
<glyph unicode="&#xa9;" horiz-adv-x="1574" d="M82 682q0 146 56 277t151.5 225t228 149.5t279.5 55.5q140 0 269 -56.5t222.5 -151t149 -225t55.5 -272.5q0 -192 -94.5 -355t-257 -257.5t-353.5 -94.5q-143 0 -274 56t-225.5 151t-150.5 225t-56 273zM209 682q0 -158 77.5 -292.5t211 -213t290.5 -78.5t290 78.5 t210.5 213.5t77.5 294q0 156 -77 290.5t-208.5 214t-283.5 79.5q-122 0 -231 -46t-187 -124t-124 -186.5t-46 -229.5zM352 676q0 184 131.5 306t331.5 122q130 0 238 -60v-174q-119 64 -224 64q-119 0 -194.5 -72t-75.5 -184q0 -107 75.5 -177.5t192.5 -70.5q134 0 258 96 v-188q-53 -35 -129.5 -56.5t-152.5 -21.5q-194 0 -322.5 119t-128.5 297z" />
<glyph unicode="&#xaa;" horiz-adv-x="727" d="M98 559v164h533v-164h-533zM98 961q0 61 46.5 103.5t142.5 72.5l67 20q14 3 41 19q0 48 -20 70t-64 22q-48 0 -92.5 -22.5t-73.5 -61.5v145q86 47 191 47q101 0 161 -45.5t60 -122.5v-188q0 -36 4.5 -49t16.5 -13q20 0 53 29v-104l-53 -29q-56 -29 -97 -29q-58 0 -82 49 q-76 -49 -139 -49q-72 0 -117 38t-45 98zM266 987q0 -20 14 -35.5t33 -15.5q36 0 82 43v100q-55 -7 -92 -34t-37 -58z" />
<glyph unicode="&#xab;" horiz-adv-x="1208" d="M68 459l315 434h250l-318 -434l318 -439h-250zM545 459l315 434h252l-317 -434l317 -439h-252z" />
<glyph unicode="&#xac;" horiz-adv-x="1024" d="M68 303v242h886v-545h-260v303h-626z" />
<glyph unicode="&#xad;" horiz-adv-x="477" d="M0 336v256h477v-256h-477z" />
<glyph unicode="&#xae;" horiz-adv-x="1574" d="M82 682q0 146 56 277t151.5 225t228 149.5t279.5 55.5q140 0 269 -56.5t222.5 -151t149 -225t55.5 -272.5q0 -192 -94.5 -355t-257 -257.5t-353.5 -94.5q-143 0 -274 56t-225.5 151t-150.5 225t-56 273zM209 682q0 -158 77.5 -292.5t211 -213t290.5 -78.5t290 78.5 t210.5 213.5t77.5 294q0 156 -77 290.5t-208.5 214t-283.5 79.5q-122 0 -231 -46t-187 -124t-124 -186.5t-46 -229.5zM471 272v820h295q131 0 209 -66t78 -176q0 -68 -29 -114.5t-92 -80.5q39 -29 72.5 -83t78.5 -160q44 -105 76 -140h-233l-99 209q-31 64 -66.5 93.5 t-82.5 29.5h-10v-332h-197zM668 756h73q50 0 77.5 23.5t27.5 66.5q0 90 -105 90h-73v-180z" />
<glyph unicode="&#xaf;" horiz-adv-x="1024" d="M240 1071v164h546v-164h-546z" />
<glyph unicode="&#xb0;" horiz-adv-x="763" d="M82 1096q0 121 89 209t212 88t211 -88.5t88 -212.5t-88 -212.5t-211 -88.5q-126 0 -213.5 88.5t-87.5 216.5zM201 1092q0 -73 53 -127t125 -54q75 0 128.5 52.5t53.5 126.5q0 76 -52.5 129t-129.5 53q-72 0 -125 -53.5t-53 -126.5z" />
<glyph unicode="&#xb1;" d="M27 -88v219h1024v-219h-1024zM27 594v219h403v381h219v-381h402v-219h-402v-383h-219v383h-403z" />
<glyph unicode="&#xb2;" horiz-adv-x="694" d="M66 547q96 100 223 276q117 165 117 264q0 57 -40 95.5t-100 38.5q-84 0 -184 -76v160q90 69 229 69q117 0 188.5 -69t71.5 -181q0 -189 -223 -415h283v-162h-565z" />
<glyph unicode="&#xb3;" horiz-adv-x="694" d="M117 580v135l10 -4q59 -23 90.5 -31t67.5 -8q53 0 85.5 29.5t32.5 76.5q0 44 -31.5 76.5t-80.5 38.5h-37v143q58 1 94.5 30t36.5 73q0 42 -32.5 70t-80.5 28q-60 0 -145 -39v137q73 39 178 39q114 0 184 -60.5t70 -158.5q0 -61 -26 -104t-84 -76q129 -41 129 -187 q0 -115 -76.5 -183t-204.5 -68q-105 0 -180 43z" />
<glyph unicode="&#xb4;" horiz-adv-x="1024" d="M395 1018l158 287h252l-252 -287h-158z" />
<glyph unicode="&#xb5;" horiz-adv-x="1136" d="M111 -465v1448h260v-522q0 -97 13.5 -145.5t51.5 -86.5q57 -57 137 -57q86 0 140 70q30 39 41.5 88t11.5 139v514h260v-983h-260v119q-35 -72 -83 -105.5t-116 -33.5q-65 0 -110.5 29t-85.5 95v-569h-260z" />
<glyph unicode="&#xb6;" horiz-adv-x="1091" d="M41 993q0 105 49.5 190.5t138.5 129.5q103 53 297 53h621v-143h-117v-1688h-178v1688h-170v-1688h-188v1053q-95 3 -154.5 16.5t-110.5 44.5q-88 54 -138 146t-50 198z" />
<glyph unicode="&#xb7;" horiz-adv-x="557" d="M102 436q0 73 52.5 125.5t126.5 52.5q72 0 124 -52.5t52 -125.5t-52 -124.5t-126 -51.5q-72 0 -124.5 52t-52.5 124z" />
<glyph unicode="&#xb8;" horiz-adv-x="1024" d="M332 -365l28 95q61 -17 91 -17q38 0 61 18.5t23 47.5q0 25 -16 39t-44 14q-19 0 -49 -12l-31 26l70 154h108l-41 -98q27 6 37 6q54 0 88.5 -36t34.5 -93q0 -78 -58 -122t-159 -44q-62 0 -143 22z" />
<glyph unicode="&#xb9;" horiz-adv-x="694" d="M102 1188l250 178h148v-819h-172v637l-170 -127z" />
<glyph unicode="&#xba;" horiz-adv-x="727" d="M74 1102q0 123 79.5 198.5t208.5 75.5q132 0 212.5 -75.5t80.5 -198.5q0 -125 -80 -201t-210 -76q-131 0 -211 76.5t-80 200.5zM78 559v164h573v-164h-573zM248 1104q0 -72 32.5 -115t86.5 -43t84 41t30 113q0 74 -31 114.5t-88 40.5q-54 0 -84 -40.5t-30 -110.5z" />
<glyph unicode="&#xbb;" horiz-adv-x="1208" d="M96 20l318 439l-318 434h250l316 -434l-316 -439h-250zM573 20l318 439l-318 434h252l316 -434l-316 -439h-252z" />
<glyph unicode="&#xbc;" horiz-adv-x="1785" d="M102 1188l250 178h148v-819h-172v637l-170 -127zM381 0l874 1366h148l-868 -1366h-154zM1161 188v129l348 502h129v-502h64v-129h-64v-188h-163v188h-314zM1298 317h177v246z" />
<glyph unicode="&#xbd;" horiz-adv-x="1785" d="M102 1188l250 178h148v-819h-172v637l-170 -127zM381 0l874 1366h148l-868 -1366h-154zM1157 0q98 102 223 276q115 162 115 265q0 57 -39 95t-98 38q-86 0 -184 -76v160q90 69 227 69q117 0 188.5 -68.5t71.5 -180.5q0 -188 -223 -416h282v-162h-563z" />
<glyph unicode="&#xbe;" horiz-adv-x="1785" d="M117 580v135l10 -4q59 -23 90.5 -31t67.5 -8q53 0 85.5 29.5t32.5 76.5q0 44 -31.5 76.5t-80.5 38.5h-37v143q58 1 94.5 30t36.5 73q0 42 -32.5 70t-80.5 28q-60 0 -145 -39v137q73 39 178 39q114 0 184 -60.5t70 -158.5q0 -61 -26 -104t-84 -76q129 -41 129 -187 q0 -115 -76.5 -183t-204.5 -68q-105 0 -180 43zM383 0l872 1366h150l-868 -1366h-154zM1163 188v129l346 502h129v-502h66v-129h-66v-188h-163v188h-312zM1300 317h175v246z" />
<glyph unicode="&#xbf;" horiz-adv-x="782" d="M109 -199q0 110 67 219q13 23 105 148q100 136 100 227q0 27 -10 66h92q74 -117 74 -234q0 -59 -15 -99.5t-80 -160.5q-43 -76 -43 -135q0 -52 34.5 -84.5t90.5 -32.5q38 0 65 14t83 62l-62 -262q-71 -29 -159 -29q-161 0 -251.5 80t-90.5 221zM242 725q0 73 52 124.5 t126 51.5q72 0 124 -52t52 -124q0 -73 -52 -125.5t-124 -52.5q-74 0 -126 52.5t-52 125.5z" />
<glyph unicode="&#xc0;" horiz-adv-x="1466" d="M6 0l524 1366h347l581 -1366h-332l-114 279h-594l-105 -279h-307zM324 1763h292l205 -272h-194zM496 492h428l-230 548z" />
<glyph unicode="&#xc1;" horiz-adv-x="1466" d="M6 0l524 1366h347l581 -1366h-332l-114 279h-594l-105 -279h-307zM496 492h428l-230 548zM621 1491l204 272h293l-303 -272h-194z" />
<glyph unicode="&#xc2;" horiz-adv-x="1466" d="M6 0l524 1366h347l581 -1366h-332l-114 279h-594l-105 -279h-307zM362 1491l250 272h215l248 -272h-231l-125 123l-125 -123h-232zM496 492h428l-230 548z" />
<glyph unicode="&#xc3;" horiz-adv-x="1466" d="M6 0l524 1366h347l581 -1366h-332l-114 279h-594l-105 -279h-307zM395 1497q7 139 47 199.5t123 60.5q47 0 94 -16l129 -45q62 -21 84 -21q29 0 42.5 20t13.5 66h127q0 -82 -4 -113t-15 -61q-15 -41 -51.5 -65.5t-81.5 -24.5q-49 0 -84 12l-133 45q-8 3 -21 7.5t-18 6.5 t-13.5 5t-12 4t-9.5 2.5t-10 2t-8.5 1t-9.5 0.5q-31 0 -45 -18.5t-17 -67.5h-127zM496 492h428l-230 548z" />
<glyph unicode="&#xc4;" horiz-adv-x="1466" d="M6 0l524 1366h347l581 -1366h-332l-114 279h-594l-105 -279h-307zM369 1624q0 54 39.5 93.5t93.5 39.5q56 0 94.5 -39t38.5 -96q0 -53 -39.5 -92t-93.5 -39t-93.5 39.5t-39.5 93.5zM496 492h428l-230 548zM791 1624q0 54 39.5 93.5t93.5 39.5q56 0 94.5 -39t38.5 -96 q0 -53 -39.5 -92t-93.5 -39t-93.5 39.5t-39.5 93.5z" />
<glyph unicode="&#xc5;" horiz-adv-x="1466" d="M6 0l524 1366h347l581 -1366h-332l-114 279h-594l-105 -279h-307zM496 492h428l-230 548zM512 1634q0 81 60.5 140t142.5 59q85 0 145 -59t60 -142q0 -79 -60.5 -137.5t-142.5 -58.5q-85 0 -145 58t-60 140zM633 1634q0 -32 25 -57t59 -25q32 0 57 25t25 57 q0 34 -24.5 58t-59.5 24q-33 0 -57.5 -24.5t-24.5 -57.5z" />
<glyph unicode="&#xc6;" horiz-adv-x="1914" d="M-6 0l719 1366h1110v-242h-572v-319h549v-242h-549v-321h600v-242h-909v569h-326l-297 -569h-325zM737 797h205v393z" />
<glyph unicode="&#xc7;" horiz-adv-x="1343" d="M70 672q0 151 65.5 295t177.5 241q205 178 529 178q222 0 393 -98v-266q-183 100 -369 100q-204 0 -336.5 -126t-132.5 -320q0 -187 132 -309.5t333 -122.5q227 0 430 151v-291q-86 -57 -218.5 -91.5t-260.5 -32.5l-45 -95q43 6 53 6q58 0 96.5 -43t38.5 -106 q0 -89 -67.5 -146t-171.5 -57q-80 0 -174 31l26 100q73 -16 111 -16q47 0 75.5 21.5t28.5 56.5q0 29 -20 47t-51 18q-19 0 -60 -14l-43 33l82 172q-165 25 -299 104q-150 91 -236.5 246t-86.5 334z" />
<glyph unicode="&#xc8;" horiz-adv-x="1067" d="M137 0v1366h852v-242h-543v-297h521v-241h-521v-344h555v-242h-864zM205 1763h293l204 -272h-194z" />
<glyph unicode="&#xc9;" horiz-adv-x="1067" d="M137 0v1366h852v-242h-543v-297h521v-241h-521v-344h555v-242h-864zM483 1491l205 272h293l-303 -272h-195z" />
<glyph unicode="&#xca;" horiz-adv-x="1067" d="M137 0v1366h852v-242h-543v-297h521v-241h-521v-344h555v-242h-864zM221 1491l250 272h215l248 -272h-232l-124 123l-125 -123h-232z" />
<glyph unicode="&#xcb;" horiz-adv-x="1067" d="M137 0v1366h852v-242h-543v-297h521v-241h-521v-344h555v-242h-864zM233 1624q0 54 40 93.5t94 39.5q56 0 94.5 -39t38.5 -96q0 -53 -39.5 -92t-93.5 -39t-94 39.5t-40 93.5zM655 1624q0 54 39.5 93.5t93.5 39.5q56 0 95 -39t39 -96q0 -53 -40 -92t-94 -39t-93.5 39.5 t-39.5 93.5z" />
<glyph unicode="&#xcc;" horiz-adv-x="583" d="M-80 1763h293l190 -272h-194zM135 0v1366h309v-1366h-309z" />
<glyph unicode="&#xcd;" horiz-adv-x="583" d="M137 0v1366h309v-1366h-309zM207 1491l190 272h293l-289 -272h-194z" />
<glyph unicode="&#xce;" horiz-adv-x="583" d="M-31 1491l230 272h215l227 -272h-225l-111 123l-110 -123h-226zM137 0v1366h309v-1366h-309z" />
<glyph unicode="&#xcf;" horiz-adv-x="583" d="M-2 1624q0 54 39.5 93.5t93.5 39.5q56 0 94.5 -39t38.5 -96q0 -53 -39.5 -92t-93.5 -39t-93.5 39.5t-39.5 93.5zM137 0v1366h309v-1366h-309zM332 1624q0 54 39.5 93.5t93.5 39.5q56 0 94.5 -39t38.5 -96q0 -53 -39.5 -92t-93.5 -39t-93.5 39.5t-39.5 93.5z" />
<glyph unicode="&#xd0;" horiz-adv-x="1427" d="M6 596v205h129v565h496q136 0 244.5 -34.5t207.5 -108.5q125 -94 199 -244t74 -311q0 -165 -74 -309t-203 -232q-102 -68 -203.5 -97.5t-234.5 -29.5h-506v596h-129zM444 242h121q215 0 339 118.5t124 323.5q0 196 -123 318t-321 122h-140v-323h301v-205h-301v-354z" />
<glyph unicode="&#xd1;" horiz-adv-x="1579" d="M137 0v1366h285l713 -854v854h309v-1366h-279l-719 860v-860h-309zM502 1497q7 139 47 199.5t123 60.5q47 0 94 -16l129 -45q62 -21 84 -21q29 0 42 20t13 66h127q0 -83 -3.5 -114t-14.5 -60q-15 -41 -51.5 -65.5t-81.5 -24.5q-50 0 -84 12l-133 45q-7 3 -19 7t-16.5 6 t-13 5t-11.5 4t-9.5 2.5t-9 2l-7.5 1.5t-8.5 1h-8.5q-31 0 -44.5 -18.5t-16.5 -67.5h-127z" />
<glyph unicode="&#xd2;" horiz-adv-x="1579" d="M72 684q0 147 55 277.5t150.5 223.5t229 147t284.5 54q206 0 370 -91t256 -254t92 -367q0 -145 -55 -274t-149.5 -221t-227.5 -145.5t-284 -53.5q-152 0 -286 53.5t-229.5 147t-150.5 224t-55 279.5zM399 680q0 -190 110 -313t279 -123t281.5 124t112.5 310 q0 170 -97 297q-112 147 -294 147q-171 0 -281.5 -124.5t-110.5 -317.5zM418 1763h293l204 -272h-194z" />
<glyph unicode="&#xd3;" horiz-adv-x="1579" d="M72 684q0 147 55 277.5t150.5 223.5t229 147t284.5 54q206 0 370 -91t256 -254t92 -367q0 -145 -55 -274t-149.5 -221t-227.5 -145.5t-284 -53.5q-152 0 -286 53.5t-229.5 147t-150.5 224t-55 279.5zM399 680q0 -190 110 -313t279 -123t281.5 124t112.5 310 q0 170 -97 297q-112 147 -294 147q-171 0 -281.5 -124.5t-110.5 -317.5zM713 1491l205 272h292l-303 -272h-194z" />
<glyph unicode="&#xd4;" horiz-adv-x="1579" d="M72 684q0 147 55 277.5t150.5 223.5t229 147t284.5 54q206 0 370 -91t256 -254t92 -367q0 -145 -55 -274t-149.5 -221t-227.5 -145.5t-284 -53.5q-152 0 -286 53.5t-229.5 147t-150.5 224t-55 279.5zM399 680q0 -190 110 -313t279 -123t281.5 124t112.5 310 q0 170 -97 297q-112 147 -294 147q-171 0 -281.5 -124.5t-110.5 -317.5zM455 1491l250 272h215l247 -272h-231l-125 123l-125 -123h-231z" />
<glyph unicode="&#xd5;" horiz-adv-x="1579" d="M72 684q0 147 55 277.5t150.5 223.5t229 147t284.5 54q206 0 370 -91t256 -254t92 -367q0 -145 -55 -274t-149.5 -221t-227.5 -145.5t-284 -53.5q-152 0 -286 53.5t-229.5 147t-150.5 224t-55 279.5zM399 680q0 -190 110 -313t279 -123t281.5 124t112.5 310 q0 170 -97 297q-112 147 -294 147q-171 0 -281.5 -124.5t-110.5 -317.5zM494 1497q7 139 47 199.5t123 60.5q47 0 94 -16l129 -45q62 -21 84 -21q29 0 42 20t13 66h127q0 -83 -3.5 -114t-14.5 -60q-15 -41 -52 -65.5t-82 -24.5q-49 0 -83 12l-134 45q-8 3 -21 7.5t-18 6.5 t-13.5 5t-12 4t-9.5 2.5t-10 2t-8.5 1t-9.5 0.5q-31 0 -44.5 -18.5t-16.5 -67.5h-127z" />
<glyph unicode="&#xd6;" horiz-adv-x="1579" d="M72 684q0 147 55 277.5t150.5 223.5t229 147t284.5 54q206 0 370 -91t256 -254t92 -367q0 -145 -55 -274t-149.5 -221t-227.5 -145.5t-284 -53.5q-152 0 -286 53.5t-229.5 147t-150.5 224t-55 279.5zM399 680q0 -190 110 -313t279 -123t281.5 124t112.5 310 q0 170 -97 297q-112 147 -294 147q-171 0 -281.5 -124.5t-110.5 -317.5zM461 1624q0 54 39.5 93.5t93.5 39.5q56 0 94.5 -39t38.5 -96q0 -53 -39.5 -92t-93.5 -39t-93.5 39.5t-39.5 93.5zM883 1624q0 54 39.5 93.5t93.5 39.5q56 0 94.5 -39t38.5 -96q0 -53 -39.5 -92 t-93.5 -39t-93.5 39.5t-39.5 93.5z" />
<glyph unicode="&#xd7;" d="M86 403l299 299l-299 302l154 153l301 -299l299 299l153 -153l-299 -302l299 -299l-153 -153l-299 299l-301 -299z" />
<glyph unicode="&#xd8;" horiz-adv-x="1579" d="M66 90l149 156q-75 105 -110 209t-35 225q0 148 55 279t150.5 224.5t228.5 148t284 54.5q221 0 422 -129l156 154l137 -129l-151 -154q83 -114 119 -217.5t36 -226.5q0 -200 -93 -361t-258 -252t-370 -91q-123 0 -226.5 32t-207.5 103l-151 -160zM397 698q0 -153 45 -229 l555 586q-51 39 -95 53t-118 14q-163 0 -275 -123t-112 -301zM561 319q88 -75 232 -75q166 0 276.5 124.5t110.5 311.5q0 127 -54 229z" />
<glyph unicode="&#xd9;" horiz-adv-x="1558" d="M137 543v823h309v-778q0 -106 37 -176q41 -78 122 -123t179 -45q151 0 240.5 95t89.5 253v774h309v-823q0 -269 -166.5 -416t-470.5 -147q-201 0 -336 56.5t-217 174.5q-96 143 -96 332zM416 1763h293l204 -272h-194z" />
<glyph unicode="&#xda;" horiz-adv-x="1558" d="M137 543v823h309v-778q0 -106 37 -176q41 -78 122 -123t179 -45q151 0 240.5 95t89.5 253v774h309v-823q0 -269 -166.5 -416t-470.5 -147q-201 0 -336 56.5t-217 174.5q-96 143 -96 332zM694 1491l205 272h293l-303 -272h-195z" />
<glyph unicode="&#xdb;" horiz-adv-x="1558" d="M137 543v823h309v-778q0 -106 37 -176q41 -78 122 -123t179 -45q151 0 240.5 95t89.5 253v774h309v-823q0 -269 -166.5 -416t-470.5 -147q-201 0 -336 56.5t-217 174.5q-96 143 -96 332zM444 1491l250 272h215l248 -272h-231l-125 123l-125 -123h-232z" />
<glyph unicode="&#xdc;" horiz-adv-x="1558" d="M137 543v823h309v-778q0 -106 37 -176q41 -78 122 -123t179 -45q151 0 240.5 95t89.5 253v774h309v-823q0 -269 -166.5 -416t-470.5 -147q-201 0 -336 56.5t-217 174.5q-96 143 -96 332zM451 1624q0 54 39.5 93.5t93.5 39.5q56 0 94.5 -39t38.5 -96q0 -53 -39.5 -92 t-93.5 -39t-93.5 39.5t-39.5 93.5zM872 1624q0 54 40 93.5t94 39.5q56 0 94.5 -39t38.5 -96q0 -53 -39.5 -92t-93.5 -39t-94 39.5t-40 93.5z" />
<glyph unicode="&#xdd;" horiz-adv-x="1314" d="M0 1366h362l293 -428l297 428h365l-506 -723v-643h-311v643zM565 1491l205 272h293l-303 -272h-195z" />
<glyph unicode="&#xde;" horiz-adv-x="1148" d="M137 0v1366h309v-192h177q118 0 190.5 -19t132.5 -65q72 -56 117 -148t45 -186q0 -170 -126 -279.5t-323 -109.5h-213v-367h-309zM446 600h132q99 0 150.5 42t51.5 124q0 83 -51.5 125.5t-150.5 42.5h-132v-334z" />
<glyph unicode="&#xdf;" horiz-adv-x="1103" d="M111 0v889q0 186 57 291q54 98 159 153.5t236 55.5q183 0 299.5 -97.5t116.5 -249.5q0 -101 -51.5 -172.5t-143.5 -97.5q56 -15 84 -28.5t54 -38.5q114 -102 114 -291q0 -187 -112 -307.5t-287 -120.5q-55 0 -148 14v203q67 -13 84 -13q86 0 140.5 71.5t54.5 184.5 q0 109 -61.5 172.5t-167.5 63.5q-13 0 -23 -2v170l19 2q55 6 80.5 14.5t43.5 26.5q48 48 48 125q0 72 -44 119t-112 47q-62 0 -106.5 -37.5t-61.5 -104.5q-12 -50 -12 -153v-889h-260z" />
<glyph unicode="&#xe0;" horiz-adv-x="970" d="M63 207q0 200 312 291q24 7 51 15.5t41.5 12.5t19.5 6q40 13 74 33q0 75 -18 107q-15 26 -50.5 42.5t-78.5 16.5q-76 0 -152 -35.5t-121 -93.5v221q143 78 312 78q170 0 269 -74.5t99 -203.5v-316q0 -66 8 -88t33 -22q35 0 84 39v-156l-86 -47q-86 -47 -162 -47 q-91 0 -135 86q-128 -86 -237 -86q-117 0 -190 61.5t-73 159.5zM174 1305h254l156 -287h-156zM334 250q0 -38 25 -66t59 -28q66 0 143 80v180q-100 -17 -163.5 -63t-63.5 -103z" />
<glyph unicode="&#xe1;" horiz-adv-x="970" d="M63 207q0 200 312 291q24 7 51 15.5t41.5 12.5t19.5 6q40 13 74 33q0 75 -18 107q-15 26 -50.5 42.5t-78.5 16.5q-76 0 -152 -35.5t-121 -93.5v221q143 78 312 78q170 0 269 -74.5t99 -203.5v-316q0 -66 8 -88t33 -22q35 0 84 39v-156l-86 -47q-86 -47 -162 -47 q-91 0 -135 86q-128 -86 -237 -86q-117 0 -190 61.5t-73 159.5zM334 250q0 -38 25 -66t59 -28q66 0 143 80v180q-100 -17 -163.5 -63t-63.5 -103zM416 1018l157 287h252l-252 -287h-157z" />
<glyph unicode="&#xe2;" horiz-adv-x="970" d="M63 207q0 200 312 291q24 7 51 15.5t41.5 12.5t19.5 6q40 13 74 33q0 75 -18 107q-15 26 -50.5 42.5t-78.5 16.5q-76 0 -152 -35.5t-121 -93.5v221q143 78 312 78q170 0 269 -74.5t99 -203.5v-316q0 -66 8 -88t33 -22q35 0 84 39v-156l-86 -47q-86 -47 -162 -47 q-91 0 -135 86q-128 -86 -237 -86q-117 0 -190 61.5t-73 159.5zM199 1018l196 287h209l197 -287h-185l-116 162l-119 -162h-182zM334 250q0 -38 25 -66t59 -28q66 0 143 80v180q-100 -17 -163.5 -63t-63.5 -103z" />
<glyph unicode="&#xe3;" horiz-adv-x="970" d="M63 207q0 200 312 291q24 7 51 15.5t41.5 12.5t19.5 6q40 13 74 33q0 75 -18 107q-15 26 -50.5 42.5t-78.5 16.5q-76 0 -152 -35.5t-121 -93.5v221q143 78 312 78q170 0 269 -74.5t99 -203.5v-316q0 -66 8 -88t33 -22q35 0 84 39v-156l-86 -47q-86 -47 -162 -47 q-91 0 -135 86q-128 -86 -237 -86q-117 0 -190 61.5t-73 159.5zM221 1040q3 68 8.5 98.5t18.5 55.5q23 40 59 63t76 23q12 0 20 -1.5t14 -3.5t28 -10l44 -16l86 -30q29 -11 46 -11q25 0 35.5 16.5t13.5 59.5h116q0 -92 -14 -133q-36 -109 -141 -109q-42 0 -105 27l-96 41 q-15 6 -29 6q-29 0 -43.5 -18t-17.5 -58h-119zM334 250q0 -38 25 -66t59 -28q66 0 143 80v180q-100 -17 -163.5 -63t-63.5 -103z" />
<glyph unicode="&#xe4;" horiz-adv-x="970" d="M63 207q0 200 312 291q24 7 51 15.5t41.5 12.5t19.5 6q40 13 74 33q0 75 -18 107q-15 26 -50.5 42.5t-78.5 16.5q-76 0 -152 -35.5t-121 -93.5v221q143 78 312 78q170 0 269 -74.5t99 -203.5v-316q0 -66 8 -88t33 -22q35 0 84 39v-156l-86 -47q-86 -47 -162 -47 q-91 0 -135 86q-128 -86 -237 -86q-117 0 -190 61.5t-73 159.5zM184 1153q0 54 39.5 93.5t93.5 39.5q57 0 96.5 -39.5t39.5 -95.5q0 -54 -40 -93.5t-94 -39.5q-55 0 -95 40t-40 95zM334 250q0 -38 25 -66t59 -28q66 0 143 80v180q-100 -17 -163.5 -63t-63.5 -103zM539 1153 q0 54 39.5 93.5t93.5 39.5q57 0 96 -39.5t39 -95.5q0 -54 -39.5 -93.5t-93.5 -39.5q-56 0 -95.5 40t-39.5 95z" />
<glyph unicode="&#xe5;" horiz-adv-x="970" d="M63 207q0 200 312 291q24 7 51 15.5t41.5 12.5t19.5 6q40 13 74 33q0 75 -18 107q-15 26 -50.5 42.5t-78.5 16.5q-76 0 -152 -35.5t-121 -93.5v221q143 78 312 78q170 0 269 -74.5t99 -203.5v-316q0 -66 8 -88t33 -22q35 0 84 39v-156l-86 -47q-86 -47 -162 -47 q-91 0 -135 86q-128 -86 -237 -86q-117 0 -190 61.5t-73 159.5zM264 1169q0 80 59.5 138.5t141.5 58.5q83 0 142 -58.5t59 -140.5q0 -78 -59.5 -136t-141.5 -58t-141.5 58t-59.5 138zM334 250q0 -38 25 -66t59 -28q66 0 143 80v180q-100 -17 -163.5 -63t-63.5 -103z M377 1169q0 -35 26.5 -60.5t61.5 -25.5t61.5 25.5t26.5 60.5t-25.5 60.5t-62.5 25.5q-35 0 -61.5 -25.5t-26.5 -60.5z" />
<glyph unicode="&#xe6;" horiz-adv-x="1449" d="M72 205q0 66 46.5 126.5t131.5 104.5q66 35 118.5 50.5t188.5 43.5l21 5q0 72 -15 106q-15 36 -55 58t-90 22q-74 0 -148.5 -32t-167.5 -105v204q166 113 375 113q75 0 146 -22.5t114 -59.5q111 82 250 82q177 0 290.5 -133t113.5 -340q0 -15 -2 -25h-551q5 -105 70 -172 t163 -67q70 0 134 23.5t143 72.5l22 14v-182q-174 -106 -344 -106q-106 0 -206.5 34.5t-145.5 88.5q-60 -53 -156.5 -88t-181.5 -35q-113 0 -188.5 62.5t-75.5 156.5zM346 260q0 -44 33 -74t80 -30q53 0 119 43v209q-62 -6 -142 -39q-90 -39 -90 -109zM838 541h295 q-5 74 -29 116q-22 33 -55 52.5t-68 19.5q-38 0 -72 -23.5t-53 -62.5q-13 -30 -18 -102z" />
<glyph unicode="&#xe7;" horiz-adv-x="870" d="M68 436q0 212 140.5 338.5t375.5 126.5q122 0 231 -43v-203q-93 52 -207 52q-117 0 -190.5 -74t-73.5 -191q0 -116 74 -189t192 -73q88 0 211 60v-203q-108 -51 -266 -51l-35 -84q27 6 37 6q54 0 88.5 -36t34.5 -93q0 -78 -58 -122t-159 -44q-63 0 -144 22l29 95 q64 -17 90 -17q38 0 61 18.5t23 47.5q0 25 -15.5 39t-43.5 14q-17 0 -49 -12l-29 26l66 148q-183 37 -283 152t-100 290z" />
<glyph unicode="&#xe8;" horiz-adv-x="978" d="M68 453q0 196 120 322t306 126q157 0 258.5 -75.5t142.5 -223.5q21 -78 23 -199h-584q-1 -104 72.5 -171.5t189.5 -67.5q74 0 157.5 30t145.5 80v-163q-60 -55 -159 -90t-195 -35q-209 0 -343 131.5t-134 335.5zM209 1305h254l155 -287h-155zM336 541h350 q-9 82 -58.5 135t-117.5 53q-146 0 -174 -188z" />
<glyph unicode="&#xe9;" horiz-adv-x="978" d="M68 453q0 196 120 322t306 126q157 0 258.5 -75.5t142.5 -223.5q21 -78 23 -199h-584q-1 -104 72.5 -171.5t189.5 -67.5q74 0 157.5 30t145.5 80v-163q-60 -55 -159 -90t-195 -35q-209 0 -343 131.5t-134 335.5zM336 541h350q-9 82 -58.5 135t-117.5 53q-146 0 -174 -188 zM446 1018l158 287h252l-252 -287h-158z" />
<glyph unicode="&#xea;" horiz-adv-x="978" d="M68 453q0 196 120 322t306 126q157 0 258.5 -75.5t142.5 -223.5q21 -78 23 -199h-584q-1 -104 72.5 -171.5t189.5 -67.5q74 0 157.5 30t145.5 80v-163q-60 -55 -159 -90t-195 -35q-209 0 -343 131.5t-134 335.5zM233 1018l197 287h209l197 -287h-185l-116 162l-119 -162 h-183zM336 541h350q-9 82 -58.5 135t-117.5 53q-146 0 -174 -188z" />
<glyph unicode="&#xeb;" horiz-adv-x="978" d="M68 453q0 196 120 322t306 126q157 0 258.5 -75.5t142.5 -223.5q21 -78 23 -199h-584q-1 -104 72.5 -171.5t189.5 -67.5q74 0 157.5 30t145.5 80v-163q-60 -55 -159 -90t-195 -35q-209 0 -343 131.5t-134 335.5zM215 1153q0 54 39.5 93.5t93.5 39.5q57 0 96 -39.5 t39 -95.5q0 -54 -39.5 -93.5t-93.5 -39.5q-56 0 -95.5 40t-39.5 95zM336 541h350q-9 82 -58.5 135t-117.5 53q-146 0 -174 -188zM569 1153q0 54 39.5 93.5t93.5 39.5q57 0 96.5 -39.5t39.5 -95.5q0 -54 -39.5 -93.5t-93.5 -39.5q-56 0 -96 40t-40 95z" />
<glyph unicode="&#xec;" horiz-adv-x="481" d="M-61 1305h254l143 -287h-158zM111 0v887h260v-887h-260z" />
<glyph unicode="&#xed;" horiz-adv-x="481" d="M111 0v887h260v-887h-260zM172 1018l143 287h254l-241 -287h-156z" />
<glyph unicode="&#xee;" horiz-adv-x="481" d="M-41 1018l197 287h209l196 -287h-184l-117 162l-119 -162h-182zM111 0v887h260v-887h-260z" />
<glyph unicode="&#xef;" horiz-adv-x="481" d="M-43 1153q0 53 37.5 90t89.5 37q53 0 90 -37.5t37 -91.5q0 -51 -38 -88t-89 -37q-52 0 -89.5 37t-37.5 90zM111 0v887h260v-887h-260zM285 1153q0 53 37.5 90t89.5 37q53 0 90 -37.5t37 -91.5q0 -51 -38 -88t-89 -37q-52 0 -89.5 37t-37.5 90z" />
<glyph unicode="&#xf0;" horiz-adv-x="1101" d="M68 444q0 194 128 324.5t318 130.5q64 0 107 -16t100 -62q-24 72 -83 157t-118 128l-186 -109l-92 101l157 96q-73 41 -172 78l74 133q60 -12 112.5 -34.5t153.5 -78.5l176 103l101 -101l-154 -90q344 -308 344 -717q0 -138 -35.5 -231t-115.5 -162q-64 -57 -143.5 -82.5 t-190.5 -25.5q-216 0 -342 120q-66 63 -102.5 151t-36.5 187zM346 444q0 -124 57 -197t154 -73q94 0 148.5 70.5t54.5 193.5q0 128 -55 200.5t-152 72.5q-100 0 -153.5 -69.5t-53.5 -197.5z" />
<glyph unicode="&#xf1;" horiz-adv-x="1064" d="M111 0v887h260v-135q131 149 282 149q82 0 147 -37t105 -106q22 -37 35.5 -87t13.5 -91v-580h-260v502q0 78 -2.5 97t-15.5 46q-15 33 -46 53.5t-67 20.5q-46 0 -87.5 -23.5t-104.5 -85.5v-610h-260zM262 1040q3 68 8.5 98.5t18.5 55.5q23 40 59 63t76 23q12 0 20 -1.5 t14 -3.5t28 -10l44 -16l86 -30q29 -11 46 -11q25 0 35.5 16.5t13.5 59.5h116q0 -92 -14 -133q-36 -109 -141 -109q-42 0 -105 27l-96 41q-15 6 -29 6q-29 0 -43.5 -18t-17.5 -58h-119z" />
<glyph unicode="&#xf2;" horiz-adv-x="1101" d="M68 444q0 127 60.5 234t164.5 166q105 57 256 57q178 0 291 -76q92 -61 143 -162t51 -219q0 -98 -35.5 -185t-101.5 -150q-129 -123 -346 -123t-346 123q-66 63 -101.5 150t-35.5 185zM236 1305h253l156 -287h-156zM346 446q0 -124 57 -198t152 -74t148 70t53 196 q0 129 -55 201t-152 72q-94 0 -148.5 -72t-54.5 -195z" />
<glyph unicode="&#xf3;" horiz-adv-x="1101" d="M68 444q0 127 60.5 234t164.5 166q105 57 256 57q178 0 291 -76q92 -61 143 -162t51 -219q0 -98 -35.5 -185t-101.5 -150q-129 -123 -346 -123t-346 123q-66 63 -101.5 150t-35.5 185zM346 446q0 -124 57 -198t152 -74t148 70t53 196q0 129 -55 201t-152 72 q-94 0 -148.5 -72t-54.5 -195zM481 1018l158 287h252l-252 -287h-158z" />
<glyph unicode="&#xf4;" horiz-adv-x="1101" d="M68 444q0 127 60.5 234t164.5 166q105 57 256 57q178 0 291 -76q92 -61 143 -162t51 -219q0 -98 -35.5 -185t-101.5 -150q-129 -123 -346 -123t-346 123q-66 63 -101.5 150t-35.5 185zM270 1018l197 287h209l196 -287h-184l-117 162l-118 -162h-183zM346 446 q0 -124 57 -198t152 -74t148 70t53 196q0 129 -55 201t-152 72q-94 0 -148.5 -72t-54.5 -195z" />
<glyph unicode="&#xf5;" horiz-adv-x="1101" d="M68 444q0 127 60.5 234t164.5 166q105 57 256 57q178 0 291 -76q92 -61 143 -162t51 -219q0 -98 -35.5 -185t-101.5 -150q-129 -123 -346 -123t-346 123q-66 63 -101.5 150t-35.5 185zM301 1040q3 68 8.5 98.5t18.5 55.5q23 40 59 63t76 23q12 0 20 -1.5t14 -3.5t28 -10 l44 -16l86 -30q29 -11 45 -11q25 0 36 16.5t14 59.5h116q0 -92 -14 -133q-36 -109 -141 -109q-42 0 -105 27l-96 41q-15 6 -29 6q-29 0 -43.5 -18t-17.5 -58h-119zM346 446q0 -124 57 -198t152 -74t148 70t53 196q0 129 -55 201t-152 72q-94 0 -148.5 -72t-54.5 -195z" />
<glyph unicode="&#xf6;" horiz-adv-x="1101" d="M68 444q0 127 60.5 234t164.5 166q105 57 256 57q178 0 291 -76q92 -61 143 -162t51 -219q0 -98 -35.5 -185t-101.5 -150q-129 -123 -346 -123t-346 123q-66 63 -101.5 150t-35.5 185zM254 1153q0 54 39.5 93.5t93.5 39.5q57 0 96 -39.5t39 -95.5q0 -54 -39.5 -93.5 t-93.5 -39.5q-55 0 -95 40t-40 95zM346 446q0 -124 57 -198t152 -74t148 70t53 196q0 129 -55 201t-152 72q-94 0 -148.5 -72t-54.5 -195zM608 1153q0 54 39.5 93.5t93.5 39.5q57 0 96.5 -39.5t39.5 -95.5q0 -54 -40 -93.5t-94 -39.5q-55 0 -95 40t-40 95z" />
<glyph unicode="&#xf7;" d="M27 600v205h1024v-205h-1024zM393 332q0 61 43 104t103 43t102.5 -42.5t42.5 -102.5t-43 -103t-104 -43q-59 0 -101.5 43t-42.5 101zM393 1069q0 61 43 104.5t103 43.5t102.5 -43t42.5 -103t-43 -102.5t-104 -42.5q-59 0 -101.5 42.5t-42.5 100.5z" />
<glyph unicode="&#xf8;" horiz-adv-x="1101" d="M68 35l104 110q-102 129 -102 299q0 203 132.5 330t344.5 127q165 0 274 -65l117 120l98 -92l-110 -116q108 -126 108 -306q0 -97 -35.5 -183.5t-101.5 -149.5q-129 -123 -344 -123q-169 0 -281 71l-108 -114zM348 446q0 -50 12 -108l306 340q-47 33 -117 33 q-93 0 -147 -71t-54 -194zM434 217q52 -43 123 -43q94 0 146.5 70.5t52.5 197.5q0 59 -15 117z" />
<glyph unicode="&#xf9;" horiz-adv-x="1064" d="M111 307v580h260v-502q0 -77 2.5 -96.5t15.5 -46.5q15 -33 46 -53.5t67 -20.5q46 0 87.5 23.5t104.5 84.5v611h260v-887h-260v135q-131 -149 -282 -149q-82 0 -147 37t-105 106q-22 37 -35.5 87t-13.5 91zM225 1305h254l156 -287h-156z" />
<glyph unicode="&#xfa;" horiz-adv-x="1064" d="M111 307v580h260v-502q0 -77 2.5 -96.5t15.5 -46.5q15 -33 46 -53.5t67 -20.5q46 0 87.5 23.5t104.5 84.5v611h260v-887h-260v135q-131 -149 -282 -149q-82 0 -147 37t-105 106q-22 37 -35.5 87t-13.5 91zM463 1018l158 287h251l-251 -287h-158z" />
<glyph unicode="&#xfb;" horiz-adv-x="1064" d="M111 307v580h260v-502q0 -77 2.5 -96.5t15.5 -46.5q15 -33 46 -53.5t67 -20.5q46 0 87.5 23.5t104.5 84.5v611h260v-887h-260v135q-131 -149 -282 -149q-82 0 -147 37t-105 106q-22 37 -35.5 87t-13.5 91zM252 1018l197 287h208l197 -287h-184l-117 162l-119 -162h-182z " />
<glyph unicode="&#xfc;" horiz-adv-x="1064" d="M111 307v580h260v-502q0 -77 2.5 -96.5t15.5 -46.5q15 -33 46 -53.5t67 -20.5q46 0 87.5 23.5t104.5 84.5v611h260v-887h-260v135q-131 -149 -282 -149q-82 0 -147 37t-105 106q-22 37 -35.5 87t-13.5 91zM227 1153q0 54 39.5 93.5t93.5 39.5q57 0 96.5 -39.5t39.5 -95.5 q0 -54 -40 -93.5t-94 -39.5q-56 0 -95.5 40t-39.5 95zM582 1153q0 54 39.5 93.5t93.5 39.5q57 0 96 -39.5t39 -95.5q0 -54 -39.5 -93.5t-93.5 -39.5q-55 0 -95 40t-40 95z" />
<glyph unicode="&#xfd;" horiz-adv-x="913" d="M-2 887h276l189 -441l174 441h281l-596 -1352h-271l283 625zM395 1018l158 287h252l-252 -287h-158z" />
<glyph unicode="&#xfe;" horiz-adv-x="1095" d="M111 -465v1831h260v-545q93 52 133.5 66t99.5 14q89 0 174.5 -38.5t145.5 -106.5q106 -121 106 -314q0 -209 -139 -336q-61 -57 -143.5 -88.5t-167.5 -31.5q-117 0 -209 47v-498h-260zM371 207q97 -47 166 -47q98 0 162.5 78.5t64.5 199.5q0 123 -65 206t-160 83 q-94 0 -168 -59v-461z" />
<glyph unicode="&#xff;" horiz-adv-x="913" d="M-2 887h276l189 -441l174 441h281l-596 -1352h-271l283 625zM160 1153q0 54 39.5 93.5t93.5 39.5q57 0 96 -39.5t39 -95.5q0 -54 -39.5 -93.5t-93.5 -39.5q-55 0 -95 40t-40 95zM514 1153q0 54 39.5 93.5t93.5 39.5q57 0 96 -39.5t39 -95.5q0 -54 -39.5 -93.5 t-93.5 -39.5q-55 0 -95 40t-40 95z" />
<glyph unicode="&#x152;" horiz-adv-x="1945" d="M72 682q0 185 76.5 334t216.5 239q178 111 483 111h1010v-242h-590v-297h571v-241h-571v-344h612v-242h-1069q-316 0 -502 158q-237 196 -237 524zM399 686q0 -129 62.5 -233.5t169.5 -157.5q113 -53 256 -53h71v874h-84q-178 0 -282 -67q-91 -60 -142 -156.5t-51 -206.5 z" />
<glyph unicode="&#x153;" horiz-adv-x="1628" d="M59 432q0 204 137.5 336.5t348.5 132.5q205 0 327 -104q75 57 137.5 80.5t137.5 23.5q126 0 231 -70t152 -186q32 -72 37 -242h-572q6 -109 72 -174t172 -65q73 0 165 32t148 76v-172q-98 -63 -179 -88.5t-179 -25.5q-103 0 -189 30t-133 84q-60 -54 -148.5 -84 t-188.5 -30q-206 0 -341 126.5t-135 319.5zM338 444q0 -128 54.5 -203t148.5 -75q47 0 90 23.5t69 64.5q41 61 41 184q0 156 -57 221q-60 66 -143 66q-94 0 -148.5 -75.5t-54.5 -205.5zM993 541h324q-3 50 -12 77q-15 49 -58.5 80t-95.5 31q-51 0 -91 -30.5t-52 -77.5 q-12 -45 -15 -80z" />
<glyph unicode="&#x178;" horiz-adv-x="1314" d="M0 1366h362l293 -428l297 428h365l-506 -723v-643h-311v643zM328 1624q0 54 39.5 93.5t93.5 39.5q56 0 94.5 -39t38.5 -96q0 -53 -39.5 -92t-93.5 -39t-93.5 39.5t-39.5 93.5zM750 1624q0 54 39.5 93.5t93.5 39.5q56 0 94.5 -39t38.5 -96q0 -53 -39.5 -92t-93.5 -39 t-93.5 39.5t-39.5 93.5z" />
<glyph unicode="&#x2c6;" horiz-adv-x="1024" d="M211 1018l197 287h208l197 -287h-184l-117 162l-119 -162h-182z" />
<glyph unicode="&#x2dc;" horiz-adv-x="1024" d="M229 1040q3 68 8.5 98.5t18.5 55.5q23 40 59 63t76 23q10 0 15.5 -0.5t13.5 -3t15 -5t25.5 -9t37.5 -13.5l86 -30q29 -11 45 -11q25 0 35.5 16.5t13.5 59.5h117q0 -89 -15 -133q-36 -109 -141 -109q-41 0 -104 27l-97 41q-15 6 -28 6q-29 0 -44 -18t-18 -58h-119z" />
<glyph unicode="&#x2000;" horiz-adv-x="916" />
<glyph unicode="&#x2001;" horiz-adv-x="1833" />
<glyph unicode="&#x2002;" horiz-adv-x="916" />
<glyph unicode="&#x2003;" horiz-adv-x="1833" />
<glyph unicode="&#x2004;" horiz-adv-x="611" />
<glyph unicode="&#x2005;" horiz-adv-x="458" />
<glyph unicode="&#x2006;" horiz-adv-x="305" />
<glyph unicode="&#x2007;" horiz-adv-x="305" />
<glyph unicode="&#x2008;" horiz-adv-x="229" />
<glyph unicode="&#x2009;" horiz-adv-x="366" />
<glyph unicode="&#x200a;" horiz-adv-x="101" />
<glyph unicode="&#x2010;" horiz-adv-x="477" d="M0 336v256h477v-256h-477z" />
<glyph unicode="&#x2011;" horiz-adv-x="477" d="M0 336v256h477v-256h-477z" />
<glyph unicode="&#x2012;" horiz-adv-x="477" d="M0 336v256h477v-256h-477z" />
<glyph unicode="&#x2013;" d="M131 336v256h815v-256h-815z" />
<glyph unicode="&#x2014;" horiz-adv-x="1427" d="M0 336v256h1427v-256h-1427z" />
<glyph unicode="&#x2018;" horiz-adv-x="522" d="M102 1036q0 130 94.5 234t219.5 110v-53q-37 -37 -61.5 -90.5t-24.5 -97.5q0 -11 2 -25q50 -35 70 -66.5t20 -74.5q0 -61 -43 -104.5t-105 -43.5q-75 0 -123.5 59.5t-48.5 151.5z" />
<glyph unicode="&#x2019;" horiz-adv-x="522" d="M100 1233q0 61 43 104t105 43q75 0 123.5 -59t48.5 -150q0 -132 -94.5 -235.5t-219.5 -108.5v52q37 37 62 90.5t25 97.5q0 4 -3 25q-50 35 -70 66.5t-20 74.5z" />
<glyph unicode="&#x201a;" horiz-adv-x="522" d="M100 123q0 61 43 104t105 43q75 0 123.5 -59t48.5 -150q0 -132 -94.5 -235t-219.5 -109v54q37 35 62 89.5t25 98.5q0 4 -3 25q-51 35 -70.5 65.5t-19.5 73.5z" />
<glyph unicode="&#x201c;" horiz-adv-x="931" d="M102 1036q0 130 94.5 234t219.5 110v-53q-37 -37 -61.5 -90.5t-24.5 -97.5q0 -11 2 -25q50 -35 70 -66.5t20 -74.5q0 -61 -43 -104.5t-105 -43.5q-75 0 -123.5 59.5t-48.5 151.5zM512 1036q0 131 94.5 234.5t218.5 109.5v-53q-37 -37 -61.5 -90.5t-24.5 -97.5 q0 -11 2 -25q50 -35 70 -66.5t20 -74.5q0 -62 -43 -105t-104 -43q-75 0 -123.5 59.5t-48.5 151.5z" />
<glyph unicode="&#x201d;" horiz-adv-x="931" d="M100 1233q0 61 43 104t105 43q75 0 123.5 -59t48.5 -150q0 -132 -94.5 -235.5t-219.5 -108.5v52q37 37 62 90.5t25 97.5q0 4 -3 25q-50 35 -70 66.5t-20 74.5zM510 1233q0 61 43 104t104 43q75 0 123.5 -59t48.5 -150q0 -132 -94.5 -236t-218.5 -108v52q37 37 61.5 90.5 t24.5 97.5q0 11 -2 25q-50 35 -70 66.5t-20 74.5z" />
<glyph unicode="&#x201e;" horiz-adv-x="931" d="M100 123q0 61 43 104t105 43q75 0 123.5 -59t48.5 -150q0 -132 -94.5 -235t-219.5 -109v54q37 35 62 89.5t25 98.5q0 4 -3 25q-51 35 -70.5 65.5t-19.5 73.5zM510 123q0 61 43 104t104 43q75 0 123.5 -59t48.5 -150q0 -132 -94 -235t-219 -109v54q37 35 61.5 89.5 t24.5 98.5q0 11 -2 25q-51 35 -70.5 65.5t-19.5 73.5z" />
<glyph unicode="&#x2022;" horiz-adv-x="1366" d="M401 692q0 120 83.5 202.5t203.5 82.5q115 0 198 -84t83 -201t-83 -199.5t-200 -82.5q-118 0 -201.5 82.5t-83.5 199.5z" />
<glyph unicode="&#x2026;" horiz-adv-x="1673" d="M102 162q0 73 52.5 125.5t126.5 52.5q72 0 124 -52.5t52 -125.5t-52 -124.5t-126 -51.5q-72 0 -124.5 52t-52.5 124zM659 162q0 73 52.5 125.5t126.5 52.5q72 0 124 -52.5t52 -125.5t-52 -124.5t-126 -51.5q-72 0 -124.5 52t-52.5 124zM1219 162q0 74 52.5 126t125.5 52 q72 0 124 -52.5t52 -125.5t-52 -124.5t-126 -51.5q-72 0 -124 52t-52 124z" />
<glyph unicode="&#x202f;" horiz-adv-x="366" />
<glyph unicode="&#x2039;" horiz-adv-x="729" d="M68 459l315 434h250l-318 -434l318 -439h-250z" />
<glyph unicode="&#x203a;" horiz-adv-x="729" d="M96 20l318 439l-318 434h250l316 -434l-316 -439h-250z" />
<glyph unicode="&#x205f;" horiz-adv-x="458" />
<glyph unicode="&#x20ac;" horiz-adv-x="1513" d="M76 489l69 166h129v7v12q0 32 7 86h-205l69 166h179q83 218 274 339t449 121q221 0 393 -98v-4l-92 -219q-143 57 -277 57q-127 0 -231 -51.5t-164 -144.5h614l-69 -166h-611q-8 -41 -8 -84v-21h572l-70 -166h-461q57 -116 169 -180.5t255 -64.5q142 0 283 61v-270 q-151 -55 -324 -55q-268 0 -463 136.5t-264 372.5h-223z" />
<glyph unicode="&#x2122;" horiz-adv-x="1804" d="M-2 1217v149h780v-149h-289v-629h-204v629h-287zM852 588v778h176l262 -295l262 295h174v-778h-204v463l-213 -242h-37l-215 242v-463h-205z" />
<glyph unicode="&#x25fc;" horiz-adv-x="890" d="M0 0v891h891v-891h-891z" />
</font>
</defs>
</svg>
